<?xml version="1.0" encoding="utf-8"?>
<!-- Generator: Adobe Illustrator 16.0.0, SVG Export Plug-In . SVG Version: 6.00 Build 0)  -->
<!DOCTYPE svg PUBLIC "-//W3C//DTD SVG 1.1//EN" "http://www.w3.org/Graphics/SVG/1.1/DTD/svg11.dtd">
<svg version="1.1" id="katman_1" xmlns="http://www.w3.org/2000/svg" xmlns:xlink="http://www.w3.org/1999/xlink" x="0px" y="0px"
	 width="50px" height="50px" viewBox="0 0 50 50" enable-background="new 0 0 50 50" xml:space="preserve">
<g>
	<path fill="#FCCD63" d="M21.042,34.799c0.049,0.375,0.139,0.732,0.26,1.066c-3.871-1.117-6.705-4.688-6.705-8.918
		c0-5.126,4.156-9.279,9.281-9.279c4.533,0,8.306,3.248,9.119,7.546c-0.004,0-0.009,0.002-0.013,0.003
		c-1.18,0.385-2.188,1.068-3.01,2.041c-0.467-0.127-0.94-0.193-1.418-0.193c-1.887,0-3.596,1.029-4.637,2.771
		C21.951,30.594,20.756,32.622,21.042,34.799z"/>
	<path fill="#FCCD63" d="M25.109,14.751c0,0.681-0.553,1.232-1.231,1.232l0,0c-0.681,0-1.231-0.551-1.231-1.232v-3.248
		c0-0.682,0.551-1.233,1.231-1.233l0,0c0.679,0,1.231,0.551,1.231,1.233V14.751z"/>
	<path fill="#FCCD63" d="M33.77,19.643c-0.481,0.483-1.262,0.482-1.742,0l0,0c-0.483-0.48-0.481-1.261,0-1.742l2.295-2.297
		c0.484-0.482,1.263-0.482,1.742,0l0,0c0.482,0.48,0.484,1.26,0,1.744L33.77,19.643z"/>
	<path fill="#FCCD63" d="M14.048,39.366c-0.483,0.483-1.263,0.483-1.742,0l0,0c-0.483-0.48-0.483-1.259,0-1.741l2.296-2.294
		c0.481-0.487,1.258-0.487,1.741,0l0,0c0.481,0.479,0.481,1.259,0,1.741L14.048,39.366z"/>
	<path fill="#FCCD63" d="M8.241,28.177c-0.682,0-1.232-0.55-1.232-1.231l0,0c0-0.682,0.551-1.229,1.232-1.229h3.247
		c0.682,0,1.233,0.55,1.233,1.229l0,0c0,0.683-0.552,1.231-1.233,1.231H8.241z"/>
	<path fill="#FCCD63" d="M12.241,16.576c-0.482-0.485-0.482-1.262,0-1.743l0,0c0.482-0.483,1.259-0.483,1.74,0l2.298,2.295
		c0.481,0.482,0.483,1.261,0,1.741l0,0c-0.48,0.483-1.261,0.483-1.741,0L12.241,16.576z"/>
	<g>
		<path fill="#FFFFFF" d="M30.914,29.027l-1.986-0.336l-1.912,0.568l-0.793,0.979l-0.572,0.72l-0.991,0.391l-0.869,0.826
			l-0.547,0.984l-0.233,1.029l0.574,1.42l0.809,0.726l1.507,0.542h2.804H39.9l1.391-0.879l0.672-1.137v-1.266l-0.488-1.367
			l-0.828-0.932L40.2,30.496l-0.476-1.291l-0.645-1.213l-0.844-0.94c0,0-1.785-0.72-1.861-0.624
			c-0.074,0.094-1.688,0.119-1.688,0.119l-1.59,0.387l-0.99,1.008L30.914,29.027z"/>
		<g>
			<g>
				<g>
					<path fill="#505B79" d="M41.707,31.118c-0.012-0.011-0.025-0.022-0.035-0.034c-0.158-0.148-0.369-0.334-0.4-0.361
						c-0.002-0.002-0.004-0.004-0.004-0.004c-0.57-2.878-3.139-5.004-6.127-5.004c-0.629,0-1.254,0.096-1.854,0.285
						c-1.111,0.348-2.063,0.967-2.839,1.848c-0.438-0.115-0.889-0.174-1.338-0.174c-1.78,0-3.393,0.932-4.375,2.508
						c-1.856,0.688-2.983,2.524-2.713,4.496c0.292,2.139,2.039,3.631,4.249,3.633l5.119,0.002l7.315-0.002
						c0.356,0,0.644-0.024,0.922-0.082c1.72-0.351,2.983-1.652,3.31-3.402C43.168,33.52,42.68,32.102,41.707,31.118z M41.279,34.525
						c-0.195,1.058-0.957,1.847-1.988,2.057c-0.164,0.033-0.346,0.049-0.59,0.049l-7.314,0.001l-5.119-0.001
						c-1.387,0-2.402-0.855-2.583-2.182c-0.171-1.249,0.603-2.409,1.842-2.762l0.078-0.021l-0.002-0.002
						c0.213-0.06,0.324-0.2,0.351-0.233c0.004-0.005,0.004-0.008,0.004-0.008l0.076-0.141c0.67-1.229,1.793-1.932,3.075-1.932
						c0.443,0,0.894,0.086,1.324,0.256l0.279,0.106c0,0,0.006,0.001,0.014,0.007c0.063,0.02,0.318,0.084,0.484-0.119
						c0.006-0.006,0.01-0.014,0.016-0.021l0.189-0.261c0.619-0.842,1.416-1.42,2.371-1.721c0.441-0.138,0.895-0.207,1.354-0.207
						c2.066,0,3.859,1.387,4.398,3.315c0,0,0.002,0.006,0.006,0.021c0.004,0.01,0.006,0.021,0.01,0.035
						c0.006,0.021,0.012,0.051,0.021,0.082c0.002,0.01,0.006,0.021,0.01,0.033c0.008,0.035,0.017,0.075,0.026,0.117l0.011,0.045
						c0.03,0.145,0.065,0.316,0.096,0.495c0,0.006,0.003,0.01,0.003,0.014c0,0,0,0.005,0,0.011c0.008,0.041,0.057,0.215,0.297,0.35
						l-0.002,0.002c0.075,0.041,0.149,0.087,0.219,0.141h0.004c0.014,0.01,0.025,0.021,0.037,0.029
						c0.063,0.05,0.125,0.104,0.182,0.158c0.014,0.013,0.025,0.023,0.039,0.037c0.064,0.068,0.125,0.135,0.178,0.197
						c0.016,0.016,0.025,0.029,0.037,0.045c0.098,0.121,0.162,0.221,0.189,0.267c0.004,0.008,0.01,0.014,0.016,0.024v0.002
						c0.002,0,0.002,0,0.002,0C41.238,33.341,41.383,33.959,41.279,34.525z"/>
				</g>
			</g>
		</g>
		<path opacity="0.17" fill="#505B79" enable-background="new    " d="M34.963,36.225c-3.928-0.142-10.745-0.733-10.455-3.173
			c0,0-1.191,2.271,1.695,3.214h8.766C34.967,36.251,34.965,36.238,34.963,36.225z"/>
	</g>
</g>
</svg>
