<?xml version="1.0" encoding="utf-8"?>
<!-- Generator: Adobe Illustrator 16.0.0, SVG Export Plug-In . SVG Version: 6.00 Build 0)  -->
<!DOCTYPE svg PUBLIC "-//W3C//DTD SVG 1.1//EN" "http://www.w3.org/Graphics/SVG/1.1/DTD/svg11.dtd">
<svg version="1.1" id="katman_1" xmlns="http://www.w3.org/2000/svg" xmlns:xlink="http://www.w3.org/1999/xlink" x="0px" y="0px"
	 width="50px" height="50px" viewBox="0 0 50 50" enable-background="new 0 0 50 50" xml:space="preserve">
<g>
	<path fill="#FFFFFF" d="M45.68,26.632v2.023l-1.078,1.821l-2.23,1.404h-7.178c0.105-0.293,0.176-0.586,0.223-0.864
		c0.527-3.287-2.854-5.821-2.854-5.821c-0.268-3.261-2.197-5.049-3.855-5.996c-0.129-0.069-0.256-0.141-0.385-0.197l1.564-1.427
		l1.59-1.613l2.549-0.619c0,0,2.582-0.046,2.699-0.2c0.117-0.151,2.98,1.006,2.98,1.006l1.357,1.508l1.037,1.94l0.748,2.069
		l0.715,1.285l1.332,1.485L45.68,26.632z"/>
	<g>
		<g>
			<path fill="#505B79" d="M43.996,22.18c-0.021-0.024-0.068-0.071-0.084-0.071c-0.291-2.23-1.412-4.182-3.027-5.586
				c-1.6-1.392-3.691-2.233-5.961-2.233c-0.91,0-1.822,0.141-2.697,0.408c-1.906,0.598-3.484,1.731-4.701,3.402
				c-0.443-0.176-0.885-0.303-1.332-0.385l0.047,0.514c0,0,0.938,0.176,2.082,0.773c0.129,0.057,0.256,0.126,0.385,0.197
				c1.027-1.484,2.338-2.466,3.986-2.981c0.725-0.222,1.473-0.339,2.23-0.339c3.73,0,6.922,2.771,7.414,6.44
				c0.066,0.513,0.455,0.981,0.793,1.204c1.428,0.899,2.199,2.56,1.918,4.113c-0.326,1.73-1.52,2.959-3.203,3.308
				c-0.258,0.048-0.551,0.072-0.947,0.072h-5.482c-0.047,0.278-0.117,0.571-0.223,0.864c-0.092,0.232-0.197,0.479-0.338,0.724h6.041
				c0.504,0,0.902-0.035,1.262-0.105c2.318-0.466,4.023-2.219,4.457-4.58C47,25.744,45.959,23.429,43.996,22.18z"/>
		</g>
	</g>
	<path fill="#FFFFFF" d="M17.05,22.408l-3.18-0.538l-3.063,0.912l-1.273,1.569l-0.914,1.152l-1.59,0.625l-1.392,1.324l-0.875,1.571
		l-0.374,1.654l0.918,2.274l1.295,1.155l2.417,0.871h4.49h17.936l2.227-1.408l1.074-1.818v-2.025l-0.781-2.192l-1.326-1.488
		l-0.717-1.283l-0.758-2.066l-1.031-1.943l-1.354-1.507c0,0-2.861-1.153-2.982-1.001c-0.119,0.15-2.705,0.192-2.705,0.192
		l-2.544,0.62l-1.589,1.611L17.05,22.408z"/>
	<g>
		<g>
			<path fill="#505B79" d="M33.068,25.279c-0.029-0.019-0.072-0.074-0.082-0.074h-0.002c-0.596-4.458-4.465-7.821-8.993-7.821
				c-0.912,0-1.82,0.14-2.698,0.415c-1.899,0.593-3.475,1.733-4.695,3.396c-0.897-0.35-1.817-0.524-2.738-0.524
				c-2.662,0-5.034,1.479-6.398,3.976c-2.762,0.779-4.49,3.382-4.103,6.185c0.398,2.916,2.704,4.877,5.731,4.879l8.593,0.001
				l12.284-0.003c0.51,0,0.902-0.035,1.268-0.108c2.309-0.471,4.012-2.224,4.445-4.581C36.076,28.839,35.027,26.531,33.068,25.279z
				 M34.115,30.732c-0.318,1.729-1.514,2.965-3.199,3.31c-0.258,0.052-0.551,0.074-0.951,0.074l-12.28,0.004l-8.589-0.002
				c-2.235-0.002-3.865-1.377-4.16-3.506c-0.276-2.006,0.97-3.871,2.953-4.432c0.434-0.117,0.84-0.437,1.031-0.811
				c1.034-1.946,2.878-3.107,4.941-3.107c0.782,0,1.568,0.165,2.337,0.486l0.651,0.257c0.018,0.006,0.032,0.013,0.049,0.019
				c0.042,0.014,0.085,0.021,0.135,0.021c0.15,0,0.283-0.074,0.363-0.187c0.015-0.015,0.024-0.033,0.035-0.052l0.134-0.205
				c1.07-1.661,2.446-2.731,4.204-3.283c0.723-0.228,1.472-0.341,2.223-0.341c3.737,0,6.924,2.77,7.418,6.441
				c0.066,0.52,0.451,0.979,0.799,1.201C33.633,27.527,34.396,29.182,34.115,30.732z"/>
		</g>
	</g>
	<path opacity="0.17" fill="#505B79" enable-background="new    " d="M29.24,17.717c0,0,4.699,2.07,5.066,6.865
		c0,0,3.455,2.361,2.336,6.917h-2.166l0.143-3.556l-2.215-2.167l-0.34-2.271l-3.021-3.596l-1.047-0.779L29.24,17.717z"/>
	<path opacity="0.17" fill="#505B79" enable-background="new    " d="M25.294,33.421c-7.21-0.225-19.718-1.173-19.184-5.066
		c0,0-2.188,3.625,3.108,5.131h16.088C25.302,33.464,25.299,33.442,25.294,33.421z"/>
</g>
</svg>
