<?xml version="1.0" encoding="utf-8"?>
<!-- Generator: Adobe Illustrator 16.0.0, SVG Export Plug-In . SVG Version: 6.00 Build 0)  -->
<!DOCTYPE svg PUBLIC "-//W3C//DTD SVG 1.1//EN" "http://www.w3.org/Graphics/SVG/1.1/DTD/svg11.dtd">
<svg version="1.1" id="katman_1" xmlns="http://www.w3.org/2000/svg" xmlns:xlink="http://www.w3.org/1999/xlink" x="0px" y="0px"
	 width="50px" height="50px" viewBox="0 0 50 50" enable-background="new 0 0 50 50" xml:space="preserve">
<g>
	<g>
		<g>
			<path fill="#505B79" d="M43.544,15.268c0,0.149-0.037,0.299-0.114,0.423l-0.159,0.199c-0.387,0.447-0.748,0.858-0.811,0.934
				c-0.408,0.398-1.03,0.884-2.053,0.884c-1.331,0-2.041-0.834-2.553-1.444c-0.471-0.572-0.746-0.871-1.292-0.871
				c-0.562,0-0.835,0.299-1.296,0.859c-0.523,0.622-1.221,1.456-2.565,1.456c-1.344,0-2.041-0.834-2.553-1.444
				c-0.496-0.597-0.746-0.871-1.305-0.871c-0.548,0-0.798,0.274-1.283,0.859c-0.523,0.622-1.219,1.456-2.563,1.456
				c-1.347,0-2.042-0.834-2.553-1.444c-0.498-0.597-0.746-0.871-1.307-0.871c-0.548,0-0.796,0.274-1.282,0.859
				c-0.522,0.622-1.219,1.456-2.564,1.456c-1.344,0-2.041-0.834-2.551-1.444c-0.486-0.597-0.746-0.871-1.295-0.871
				c-0.56,0-0.81,0.274-1.294,0.859c-0.511,0.622-1.221,1.456-2.565,1.456c-1.332,0-2.04-0.834-2.552-1.444
				c-0.137-0.161-0.249-0.298-0.361-0.423c-0.136-0.138-0.235-0.349-0.235-0.572c0-0.447,0.373-0.822,0.821-0.822
				c0.225,0,0.436,0.088,0.586,0.25c0.161,0.149,0.297,0.311,0.423,0.472c0.522,0.611,0.771,0.885,1.318,0.885
				c0.561,0,0.81-0.273,1.296-0.848c0.51-0.622,1.22-1.456,2.563-1.456c1.343,0,2.041,0.834,2.552,1.444
				c0.486,0.586,0.746,0.859,1.294,0.859c0.549,0,0.809-0.273,1.295-0.848c0.511-0.622,1.208-1.456,2.565-1.456
				c1.343,0,2.04,0.834,2.55,1.444c0.486,0.586,0.748,0.859,1.296,0.859c0.547,0,0.807-0.273,1.294-0.848
				c0.511-0.622,1.208-1.456,2.564-1.456c1.345,0,2.043,0.834,2.553,1.444c0.472,0.573,0.746,0.859,1.293,0.859
				c0.56,0,0.81-0.273,1.297-0.859c0.521-0.61,1.217-1.444,2.564-1.444c1.345,0,2.039,0.834,2.55,1.444
				c0.487,0.586,0.749,0.859,1.295,0.859c0.3,0,0.523-0.074,0.759-0.262v-0.075l0.148-0.074c0.127-0.138,0.264-0.285,0.387-0.437
				l0.362-0.447c0.101-0.124,0.185-0.187,0.3-0.248c0.097-0.051,0.224-0.075,0.358-0.075C43.17,14.434,43.544,14.807,43.544,15.268z
				"/>
		</g>
	</g>
	<g>
		<path fill="#505B79" d="M43.549,24.543c0,0.149-0.036,0.299-0.113,0.424l-0.161,0.199c-0.387,0.445-0.746,0.857-0.81,0.934
			c-0.407,0.398-1.031,0.883-2.052,0.883c-1.331,0-2.042-0.834-2.553-1.445c-0.471-0.57-0.746-0.87-1.292-0.87
			c-0.563,0-0.835,0.3-1.297,0.858c-0.522,0.623-1.22,1.457-2.564,1.457s-2.043-0.834-2.554-1.445
			c-0.495-0.595-0.745-0.87-1.305-0.87c-0.547,0-0.797,0.275-1.284,0.858c-0.521,0.623-1.217,1.457-2.562,1.457
			c-1.348,0-2.042-0.834-2.554-1.445c-0.497-0.595-0.745-0.87-1.306-0.87c-0.549,0-0.797,0.275-1.282,0.858
			c-0.522,0.623-1.22,1.457-2.564,1.457c-1.344,0-2.041-0.834-2.552-1.445c-0.485-0.595-0.746-0.87-1.294-0.87
			c-0.561,0-0.81,0.275-1.295,0.858c-0.51,0.623-1.221,1.457-2.565,1.457c-1.331,0-2.04-0.834-2.551-1.445
			c-0.138-0.16-0.249-0.297-0.361-0.421c-0.137-0.138-0.235-0.349-0.235-0.573c0-0.446,0.373-0.821,0.821-0.821
			c0.225,0,0.435,0.088,0.585,0.249c0.161,0.149,0.298,0.311,0.423,0.473c0.522,0.61,0.772,0.884,1.318,0.884
			c0.562,0,0.81-0.273,1.296-0.847c0.51-0.623,1.22-1.457,2.564-1.457c1.343,0,2.041,0.834,2.551,1.444
			c0.486,0.586,0.746,0.859,1.295,0.859s0.809-0.273,1.295-0.847c0.511-0.623,1.208-1.457,2.564-1.457
			c1.344,0,2.04,0.834,2.55,1.444c0.486,0.586,0.749,0.859,1.297,0.859c0.547,0,0.807-0.273,1.292-0.847
			c0.512-0.623,1.209-1.457,2.566-1.457c1.344,0,2.041,0.834,2.552,1.444c0.473,0.573,0.747,0.859,1.294,0.859
			c0.56,0,0.81-0.273,1.295-0.859c0.523-0.61,1.219-1.444,2.566-1.444c1.343,0,2.039,0.834,2.55,1.444
			c0.485,0.586,0.749,0.859,1.295,0.859c0.3,0,0.523-0.074,0.759-0.261V24.99l0.148-0.074c0.127-0.137,0.262-0.285,0.387-0.436
			l0.362-0.447c0.099-0.124,0.185-0.188,0.3-0.249c0.096-0.051,0.222-0.075,0.358-0.075C43.176,23.709,43.549,24.082,43.549,24.543z
			"/>
	</g>
	<g>
		<path fill="#505B79" d="M43.563,33.811c0,0.176-0.05,0.338-0.148,0.475l-0.14,0.162c-0.311,0.373-0.622,0.723-0.746,0.871
			l-0.111,0.111c-0.574,0.549-1.222,0.822-1.993,0.822c-1.345,0-2.053-0.834-2.563-1.445c-0.474-0.572-0.735-0.857-1.295-0.857
			c-0.547,0-0.821,0.285-1.294,0.857c-0.511,0.611-1.208,1.445-2.552,1.445c-1.345,0-2.056-0.834-2.566-1.445
			c-0.474-0.572-0.733-0.857-1.295-0.857c-0.545,0-0.807,0.273-1.294,0.857c-0.51,0.611-1.217,1.445-2.552,1.445
			c-1.357,0-2.054-0.834-2.563-1.445c-0.485-0.584-0.747-0.857-1.295-0.857c-0.56,0-0.81,0.273-1.293,0.857
			c-0.512,0.611-1.209,1.445-2.554,1.445c-1.356,0-2.054-0.834-2.564-1.445c-0.483-0.584-0.746-0.857-1.294-0.857
			c-0.56,0-0.821,0.285-1.294,0.857c-0.511,0.611-1.207,1.445-2.552,1.445c-1.356,0-2.055-0.834-2.564-1.445
			c-0.137-0.174-0.248-0.299-0.348-0.41c-0.151-0.148-0.237-0.359-0.237-0.572c0-0.461,0.373-0.82,0.82-0.82
			c0.225,0,0.425,0.074,0.586,0.236c0.162,0.174,0.312,0.348,0.447,0.51c0.486,0.584,0.748,0.857,1.296,0.857
			c0.547,0,0.809-0.285,1.294-0.857c0.51-0.609,1.207-1.457,2.552-1.457c1.357,0,2.055,0.848,2.564,1.457
			c0.484,0.584,0.747,0.857,1.294,0.857s0.811-0.273,1.295-0.857c0.511-0.609,1.207-1.457,2.552-1.457
			c1.356,0,2.055,0.848,2.564,1.457c0.485,0.584,0.734,0.857,1.294,0.857c0.549,0,0.809-0.273,1.282-0.857
			c0.523-0.609,1.219-1.457,2.563-1.457c1.347,0,2.055,0.836,2.567,1.457c0.471,0.559,0.734,0.857,1.294,0.857
			c0.547,0,0.807-0.285,1.293-0.857c0.51-0.609,1.208-1.457,2.553-1.457c1.356,0,2.054,0.848,2.564,1.457
			c0.487,0.584,0.748,0.857,1.294,0.857c0.325,0,0.549-0.086,0.797-0.322l0.063-0.051l0.051-0.049
			c0.124-0.125,0.247-0.273,0.384-0.436l0.351-0.436c0.099-0.125,0.199-0.199,0.3-0.25c0.11-0.061,0.232-0.086,0.358-0.086
			C43.188,32.979,43.563,33.352,43.563,33.811z"/>
	</g>
</g>
</svg>
