<?xml version="1.0" encoding="utf-8"?>
<!-- Generator: Adobe Illustrator 21.0.0, SVG Export Plug-In . SVG Version: 6.00 Build 0)  -->
<svg version="1.1" id="katman_1" xmlns="http://www.w3.org/2000/svg" xmlns:xlink="http://www.w3.org/1999/xlink" x="0px" y="0px"
	 width="50px" height="50px" viewBox="0 0 50 50" style="enable-background:new 0 0 50 50;" xml:space="preserve">
<style type="text/css">
	.st0{fill:#FFFFFF;}
	.st1{fill:#505B78;}
	.st2{opacity:0.17;fill:#505B78;enable-background:new    ;}
	.st3{fill:#90D3F1;}
	.st4{fill:#5090C7;}
</style>
<path class="st0" d="M22.5,16.2l-3.2-0.5l-3.1,0.9l-1.3,1.6L14,19.4L12.3,20l-1.4,1.3L10,22.9l-0.4,1.7l0.9,2.3l1.3,1.2l2.4,0.9h4.6
	H37l2.3-1.4l1.1-1.8v-2.1l-0.8-2.2L38.3,20l-0.7-1.3l-0.8-2.1l-1-2L34.4,13c0,0-2.9-1.2-3-1s-2.7,0.2-2.7,0.2L26,12.8l-1.6,1.6
	L22.5,16.2z"/>
<g>
	<g>
		<path class="st1" d="M38.7,19.1C38.7,19.1,38.6,19,38.7,19.1C38.6,19,38.6,19,38.7,19.1c-0.7-4.6-4.6-8-9.2-8
			c-0.9,0-1.8,0.1-2.7,0.4c-1.9,0.6-3.5,1.8-4.8,3.4c-0.9-0.4-1.8-0.5-2.8-0.5c-2.7,0-5.1,1.5-6.5,4c-2.8,0.8-4.6,3.4-4.2,6.3
			c0.4,3,2.7,4.9,5.8,4.9H23h12.5c0.5,0,0.9,0,1.3-0.1c2.3-0.5,4.1-2.3,4.5-4.6C41.8,22.7,40.7,20.4,38.7,19.1z M39.8,24.6
			c-0.3,1.8-1.5,3-3.2,3.4c-0.3,0.1-0.6,0.1-1,0.1H23.1h-8.7c-2.3,0-3.9-1.4-4.2-3.6c-0.3-2,1-3.9,3-4.5c0.4-0.1,0.9-0.4,1-0.8
			c1-2,2.9-3.2,5-3.2c0.8,0,1.6,0.2,2.4,0.5l0.7,0.3l0,0h0.1c0.2,0,0.3-0.1,0.4-0.2c0,0,0,0,0-0.1l0.1-0.2c1.1-1.7,2.5-2.8,4.3-3.3
			c0.7-0.2,1.5-0.3,2.3-0.3c3.8,0,7,2.8,7.5,6.5c0.1,0.5,0.5,1,0.8,1.2C39.3,21.4,40.1,23.1,39.8,24.6z"/>
	</g>
</g>
<path class="st2" d="M30.8,27.4c-7.3-0.2-20-1.2-19.5-5.1c0,0-2.2,3.7,3.2,5.2L30.8,27.4L30.8,27.4z"/>
<ellipse class="st3" cx="12.6" cy="37.7" rx="3.7" ry="3.7"/>
<path class="st3" d="M25.2,36c0,2-1.7,3.7-3.7,3.7c-2.1,0-3.7-1.7-3.7-3.7s1.7-3.7,3.7-3.7S25.1,34,25.2,36z"/>
<path class="st3" d="M33.6,39.1c0,2-1.7,3.7-3.7,3.7s-3.7-1.7-3.7-3.7s1.7-3.7,3.7-3.7C31.9,35.4,33.6,37.1,33.6,39.1z"/>
<path class="st3" d="M41.6,35.4c0,2.1-1.7,3.7-3.7,3.7s-3.7-1.7-3.7-3.7s1.7-3.7,3.7-3.7C40,31.7,41.6,33.4,41.6,35.4z"/>
<circle class="st4" cx="12.6" cy="37.5" r="1.7"/>
<circle class="st4" cx="21.4" cy="36" r="1.7"/>
<circle class="st4" cx="29.9" cy="39.2" r="1.7"/>
<circle class="st4" cx="37.9" cy="35.4" r="1.7"/>
</svg>
