<?xml version="1.0" encoding="utf-8"?>
<!-- Generator: Adobe Illustrator 16.0.0, SVG Export Plug-In . SVG Version: 6.00 Build 0)  -->
<!DOCTYPE svg PUBLIC "-//W3C//DTD SVG 1.1//EN" "http://www.w3.org/Graphics/SVG/1.1/DTD/svg11.dtd">
<svg version="1.1" id="katman_1" xmlns="http://www.w3.org/2000/svg" xmlns:xlink="http://www.w3.org/1999/xlink" x="0px" y="0px"
	 width="50px" height="50px" viewBox="0 0 50 50" enable-background="new 0 0 50 50" xml:space="preserve">
<path opacity="0.17" fill="#505B78" enable-background="new    " d="M-51.528,26.311c-2.997-0.688-5.217-1.684-5.515-3.13
	c-0.074-0.05-0.148-0.095-0.225-0.146c-0.396,1.011-0.903,3.563,3.352,4.772h5.975C-49.146,27.37-50.342,26.872-51.528,26.311z"/>
<g>
	<g>
		<g>
			<path fill="#F75970" d="M20.888,28.891L10.837,38.939c-0.13,0.08-0.29,0.131-0.449,0.131c-0.48,0-0.86-0.391-0.86-0.86
				c0-0.229,0.09-0.45,0.25-0.61l9.89-9.898c0.761-0.78,1.061-1.96,0.78-3.06c-0.25-1.02-0.94-1.78-1.89-2.1
				c-0.34-0.12-0.7-0.18-1.061-0.18c-0.899,0-1.76,0.37-2.35,1.01c-0.62,0.68-0.91,1.57-0.84,2.5c0.01,0.24-0.051,0.439-0.19,0.6
				c-0.16,0.16-0.38,0.262-0.61,0.262c-0.409,0-0.85-0.28-0.909-0.812c-0.101-1.37,0.359-2.67,1.29-3.68
				c0.93-1.02,2.239-1.6,3.59-1.6c0.63,0,1.26,0.13,1.859,0.38c1.46,0.63,2.49,1.89,2.801,3.45
				C22.478,26.061,22.007,27.71,20.888,28.891z"/>
		</g>
	</g>
	<g>
		<g>
			<path fill="#F75970" d="M39.377,35.91c-1.29,1.869-3.38,2.979-5.59,2.979c-0.141,0-0.29,0-0.439-0.01h-0.141
				c-0.54-0.061-0.82-0.529-0.811-0.949c0.021-0.471,0.391-0.779,0.851-0.761c0.16,0.011,0.31,0.021,0.479,0.021
				c1.801,0,3.399-0.851,4.271-2.279c0.86-1.391,1.01-3.08,0.42-4.521c-0.75-1.859-2.55-3.06-4.61-3.06
				c-1.31,0-2.56,0.51-3.488,1.42L20.157,38.9c-0.15,0.119-0.33,0.18-0.51,0.18c-0.48,0-0.87-0.391-0.87-0.87
				c0-0.16,0.05-0.31,0.13-0.45v-0.01l0.04-0.04l0.23-0.229l9.939-9.939c0.04-0.04,0.079-0.08,0.12-0.109
				c1.24-1.17,2.93-1.841,4.63-1.841c0.42,0,0.829,0.04,1.229,0.12c2.221,0.45,4.051,1.95,4.891,4.03
				C40.807,31.77,40.577,34.189,39.377,35.91z"/>
		</g>
	</g>
	<g>
		<g>
			<path fill="#F75970" d="M31.697,22.57l-0.11,0.11l-16.13,16.13c-0.17,0.17-0.38,0.26-0.6,0.26c-0.351,0-0.68-0.229-0.83-0.569
				c-0.13-0.319-0.06-0.66,0.19-0.92l16.141-16.13c1.199-1.24,1.709-3.01,1.35-4.74c-0.359-1.69-1.479-3.03-3.05-3.68
				c-0.601-0.24-1.229-0.36-1.9-0.36c-0.989,0-1.96,0.27-2.81,0.79c-1.6,0.98-2.52,2.91-2.35,4.94c0.02,0.24-0.051,0.45-0.19,0.62
				c-0.15,0.17-0.38,0.26-0.63,0.26c-0.42,0-0.87-0.29-0.92-0.84c-0.22-2.52,0.92-4.91,3.06-6.38c1.051-0.73,2.391-1.14,3.78-1.14
				c0.91,0,1.818,0.18,2.619,0.5c2.109,0.86,3.711,2.8,4.16,5.07C33.917,18.63,33.247,20.9,31.697,22.57z"/>
		</g>
	</g>
</g>
</svg>
