<?xml version="1.0" encoding="utf-8"?>
<!-- Generator: Adobe Illustrator 22.0.1, SVG Export Plug-In . SVG Version: 6.00 Build 0)  -->
<svg version="1.1" id="katman_1" xmlns="http://www.w3.org/2000/svg" xmlns:xlink="http://www.w3.org/1999/xlink" x="0px" y="0px" height="50px" width="50px"
	 viewBox="0 0 50 50" style="enable-background:new 0 0 50 50;" xml:space="preserve">
<style type="text/css">
	.st0{fill:#FFFFFF;}
	.st1{opacity:0.17;fill:#505B79;enable-background:new    ;}
	.st2{fill:#505B79;}
	.st3{fill:#EA5A71;}
	.st4{fill:#66CD54;}
</style>
<g>
	<path class="st0" d="M22.1,13.9l-3.3-0.6l-3.2,0.9l-1.3,1.6l-1,1.2l-1.7,0.7l-1.4,1.4l-0.9,1.6l-0.4,1.7l1,2.4l1.3,1.2l2.5,0.9h4.7
		H37l2.3-1.5l1.1-1.9v-2.1l-0.8-2.3l-1.4-1.6l-0.7-1.3l-0.8-2.1l-1.1-2l-1.4-1.6c0,0-3-1.2-3.1-1s-2.8,0.2-2.8,0.2l-2.6,0.6L24,12
		L22.1,13.9z"/>
	<path class="st1" d="M15.4,24.2c-0.6-0.3-1.2-0.6-1.8-0.9c-1.7-0.7-2.7-1.5-2.5-2.7c0,0-2.1,3.4,2.9,4.9h6
		c-0.4-0.1-0.8-0.2-1.3-0.4C17.6,24.9,16.5,24.6,15.4,24.2z"/>
	<path class="st2" d="M38.7,17.1C38.7,17.1,38.7,17,38.7,17.1c-0.4-2.3-1.5-4.3-3.1-5.8C34,10,31.8,9.1,29.5,9.1
		c-0.9,0-1.9,0.1-2.7,0.4c-1.9,0.6-3.5,1.8-4.8,3.5c-0.9-0.4-1.8-0.5-2.8-0.5c-2.7,0-5.1,1.5-6.5,4c-2.8,0.8-4.6,3.4-4.2,6.3
		c0.4,3,2.7,4.9,5.8,5h5.9l0.7-1.6h-3.6h-3.1c-2.3,0-3.9-1.4-4.2-3.6c-0.3-2,1-3.9,3-4.5c0.4-0.1,0.9-0.4,1-0.8c1.1-2,2.9-3.2,5-3.2
		c0.8,0,1.6,0.2,2.4,0.5l0.7,0.3c0,0,0,0,0.1,0h0.1c0.2,0,0.3-0.1,0.4-0.2c0,0,0,0,0-0.1l0.1-0.2c1.1-1.7,2.5-2.8,4.3-3.3
		c0.7-0.2,1.5-0.3,2.3-0.3c3.8,0,7,2.8,7.5,6.5c0.1,0.5,0.5,1,0.8,1.2c1.4,0.9,2.2,2.6,1.9,4.2c-0.3,1.8-1.5,3-3.2,3.4
		c-0.3,0.1-0.6,0.1-1,0.1h-0.8c-0.1,0.6-0.3,1.1-0.5,1.6h1.3c0.5,0,0.9,0,1.3-0.1c2.3-0.5,4.1-2.3,4.5-4.6
		C41.8,20.7,40.7,18.4,38.7,17.1z"/>
	<path class="st3" d="M26.1,30.4l-6.5,10.8l0,0l0,0c0,0-0.1,0.1-0.1,0c0,0-0.1,0-0.1-0.1l2.4-8.4l-2.7-0.5l0.5-1.2l0,0v-0.1l1.4-3.2
		l0,0l0.7-1.7H23l0,0h2l-0.2,0.4l-0.1,0.3l0,0l-0.4,0.9l-1,2.3L26.1,30.4z"/>
</g>
<path class="st4" d="M33.8,28.7c0.2,1.7,0,3.6,1,5.2c0.3,0.5,0.7,1,0.8,1.6c0.3,1-0.2,2.2-0.9,3c-0.4,0.5-1,0.9-1.6,1
	c-0.9,0.2-1.9-0.1-2.6-0.7c-0.4-0.4-0.6-0.9-0.7-1.4c-0.1-0.6,0-1.2,0.2-1.8c0.8-2.5,2.4-4.7,3.4-7.2c0-0.1,0.1-0.1,0.1-0.2
	c0.2-0.1,0.2,0.1,0.3,0.2C33.8,28.5,33.8,28.6,33.8,28.7z"/>
<path class="st4" d="M30.4,17.4c0.2,1.7,0,3.6,1,5.2c0.3,0.5,0.7,1,0.8,1.6c0.3,1-0.2,2.2-0.9,3c-0.4,0.5-1,0.9-1.6,1
	c-0.9,0.2-1.9-0.1-2.6-0.7c-0.4-0.4-0.6-0.9-0.7-1.4c-0.1-0.6,0-1.2,0.2-1.8c0.8-2.5,2.4-4.7,3.4-7.2c0-0.1,0.1-0.1,0.1-0.2
	c0.2-0.1,0.2,0.1,0.3,0.2C30.3,17.2,30.4,17.3,30.4,17.4z"/>
</svg>
