<?xml version="1.0" encoding="utf-8"?>
<!-- Generator: Adobe Illustrator 16.0.0, SVG Export Plug-In . SVG Version: 6.00 Build 0)  -->
<!DOCTYPE svg PUBLIC "-//W3C//DTD SVG 1.1//EN" "http://www.w3.org/Graphics/SVG/1.1/DTD/svg11.dtd">
<svg version="1.1" id="katman_1" xmlns="http://www.w3.org/2000/svg" xmlns:xlink="http://www.w3.org/1999/xlink" x="0px" y="0px"
	 width="50px" height="50px" viewBox="0 0 50 50" enable-background="new 0 0 50 50" xml:space="preserve">
<path fill="#FFFFFF" d="M46.41,24.106v2.009l-1.101,1.811l-2.29,1.4h-7.88l0.021-0.041v-2.02l-0.8-2.17l-1.37-1.489l-0.73-1.271
	l-0.779-2.06l-1.061-1.931l-1.39-1.5c0,0-0.23-0.09-0.57-0.22l1.74-1.53l1.63-1.6l2.61-0.61c0,0,2.659-0.05,2.779-0.2
	c0.12-0.15,3.061,1,3.061,1l1.39,1.49l1.061,1.93l0.779,2.06l0.74,1.28l1.36,1.479L46.41,24.106z"/>
<path fill="#FFFFFF" d="M16.857,20.077l-3.284-0.536l-3.163,0.905l-1.315,1.565L8.15,23.16L6.51,23.785l-1.436,1.315l-0.907,1.57
	l-0.385,1.643l0.95,2.266l1.338,1.154L8.565,32.6h4.638h18.523l2.303-1.403l1.109-1.813v-2.018l-0.807-2.182l-1.371-1.49
	l-0.74-1.279l-0.781-2.063l-1.066-1.934l-1.4-1.502c0,0-2.953-1.148-3.078-0.996c-0.123,0.152-2.792,0.194-2.792,0.194l-2.627,0.614
	l-1.64,1.61L16.857,20.077z"/>
<g>
	<g>
		<g>
			<path fill="#505B78" d="M44.264,19.715c-0.021-0.023-0.07-0.071-0.084-0.071c-0.298-2.263-1.436-4.242-3.07-5.665
				c-1.623-1.411-3.742-2.264-6.045-2.264c-0.924,0-1.85,0.143-2.734,0.414c-1.934,0.605-3.532,1.755-4.768,3.449
				c-0.449-0.178-0.897-0.308-1.353-0.391l0.047,0.521c0,0,0.95,0.179,2.111,0.783c0.13,0.06,0.26,0.13,0.391,0.201
				c1.044-1.505,2.37-2.5,4.044-3.023c0.733-0.225,1.491-0.343,2.262-0.343c3.783,0,7.021,2.81,7.519,6.53
				c0.067,0.521,0.462,0.996,0.808,1.221c1.445,0.913,2.229,2.597,1.942,4.172c-0.332,1.755-1.542,3-3.248,3.354
				c-0.263,0.049-0.56,0.069-0.961,0.069h-5.56c-0.049,0.283-0.121,0.58-0.228,0.877c-0.095,0.235-0.2,0.486-0.345,0.733h6.128
				c0.511,0,0.913-0.035,1.278-0.104c2.35-0.477,4.078-2.25,4.52-4.646C47.309,23.329,46.253,20.982,44.264,19.715z"/>
		</g>
	</g>
	<g>
		<g>
			<path fill="#505B78" d="M33.18,22.856c-0.029-0.021-0.07-0.07-0.08-0.07c-0.301-2.26-1.438-4.239-3.07-5.66
				c-1.629-1.42-3.75-2.27-6.048-2.27c-0.93,0-1.85,0.14-2.739,0.42c-1.921,0.6-3.521,1.76-4.761,3.44
				c-0.91-0.351-1.84-0.53-2.77-0.53c-2.71,0-5.11,1.5-6.49,4.03c-2.8,0.79-4.56,3.431-4.16,6.271c0.4,2.959,2.74,4.949,5.811,4.949
				h6.399c-0.069-0.311-0.1-0.629-0.1-0.949c0-0.221,0.02-0.438,0.05-0.658H8.87c-2.261-0.012-3.92-1.4-4.221-3.563
				c-0.27-2.029,0.99-3.919,3-4.49c0.44-0.12,0.851-0.45,1.04-0.82c1.051-1.979,2.92-3.159,5.011-3.159c0.8,0,1.59,0.17,2.38,0.5
				l0.66,0.26c0.01,0,0.029,0.01,0.039,0.02c0.051,0.01,0.091,0.021,0.141,0.021c0.149,0,0.29-0.08,0.37-0.19
				c0.02-0.02,0.02-0.04,0.04-0.06l0.13-0.2c1.09-1.69,2.479-2.771,4.26-3.33c0.74-0.23,1.5-0.35,2.26-0.35
				c3.792,0,7.021,2.81,7.521,6.529c0.069,0.53,0.46,1,0.812,1.22c1.438,0.92,2.222,2.602,1.932,4.17
				c-0.32,1.762-1.53,3.012-3.24,3.36c-0.26,0.05-0.561,0.069-0.96,0.069h-2.21c0.029,0.221,0.05,0.438,0.05,0.67
				c0,0.32-0.028,0.641-0.1,0.951h2.26c0.521,0,0.91-0.041,1.278-0.11c2.352-0.479,4.07-2.261,4.512-4.65
				C36.229,26.466,35.169,24.126,33.18,22.856z"/>
		</g>
	</g>
	<path opacity="0.17" fill="#505B78" enable-background="new    " d="M29.3,15.189c0,0,4.767,2.099,5.138,6.963
		c0,0,3.504,2.395,2.369,7.013h-2.197l0.146-3.604l-2.246-2.194l-0.347-2.304L29.1,17.414l-1.063-0.791L29.3,15.189z"/>
	<path opacity="0.17" fill="#505B78" enable-background="new    " d="M11.384,29.682c-2.997-0.687-5.217-1.683-5.515-3.13
		c-0.074-0.05-0.149-0.095-0.225-0.146c-0.396,1.011-0.903,3.563,3.352,4.773h5.974C13.766,30.743,12.571,30.244,11.384,29.682z"/>
	<path fill="#4D8FC6" d="M27.206,32.6c0,0.449-0.354,0.813-0.81,0.813H23.48l2.069,2.066c0.309,0.311,0.309,0.828,0,1.142
		c-0.32,0.317-0.828,0.317-1.14,0l-2.079-2.08v2.938c0,0.438-0.359,0.811-0.809,0.811c-0.439,0-0.8-0.37-0.8-0.811V34.54
		l-2.079,2.079c-0.309,0.318-0.818,0.318-1.138,0c-0.311-0.313-0.311-0.831,0-1.141l2.068-2.067h-2.928c-0.44,0-0.8-0.36-0.8-0.812
		c0-0.447,0.359-0.812,0.8-0.812h2.928l-2.068-2.067c-0.311-0.318-0.311-0.828,0-1.138c0.158-0.161,0.369-0.242,0.568-0.242
		c0.21,0,0.41,0.081,0.569,0.242l2.079,2.078v-2.938c0-0.451,0.36-0.813,0.8-0.813c0.449,0,0.809,0.357,0.809,0.813v2.928
		l2.068-2.066c0.322-0.32,0.83-0.32,1.15,0c0.148,0.146,0.229,0.355,0.229,0.566c0,0.199-0.08,0.41-0.229,0.568l-2.069,2.067h2.917
		C26.852,31.789,27.206,32.152,27.206,32.6z"/>
</g>
</svg>
