<?xml version="1.0" encoding="utf-8"?>
<!-- Generator: Adobe Illustrator 22.0.1, SVG Export Plug-In . SVG Version: 6.00 Build 0)  -->
<svg version="1.1" id="katman_1" xmlns="http://www.w3.org/2000/svg" xmlns:xlink="http://www.w3.org/1999/xlink" x="0px" y="0px"  height="50px" width="50px"
	 viewBox="0 0 50 50" style="enable-background:new 0 0 50 50;" xml:space="preserve">
<style type="text/css">
	.st0{fill:#FFFFFF;}
	.st1{fill:#505B78;}
	.st2{opacity:0.17;fill:#505B78;enable-background:new    ;}
	.st3{fill:#66CD54;}
</style>
<path class="st0" d="M22,17.8l-3.3-0.5l-3.2,0.9l-1.3,1.6L13.3,21l-1.6,0.6l-1.4,1.3l-0.9,1.6L9,26.2l1,2.3l1.3,1.2l2.5,0.9h4.6
	h18.5l2.3-1.4l1.1-1.8v-2.1L39.5,23l-1.4-1.5l-0.7-1.3l-0.8-2.1l-1.1-2l-1.4-1.5c0,0-3-1.2-3.1-1s-2.8,0.2-2.8,0.2l-2.6,0.6L24,16.1
	L22,17.8z"/>
<g>
	<g>
		<g>
			<g>
				<path class="st1" d="M41.4,26.7c0,0.2-0.1,0.3-0.1,0.5c-0.1,0.4-0.3,0.8-0.4,1.1c-0.8,1.6-2.2,2.7-4,3c-0.4,0.1-0.8,0.1-1.3,0.1
					H33c0.1-0.1,0.3-0.3,0.4-0.5c0.2-0.4,0.3-0.7,0.4-1.1h0.7l0,0h1.2c0.4,0,0.7,0,1-0.1c1.7-0.4,2.9-1.6,3.2-3.4
					c0.3-1.6-0.5-3.3-1.9-4.2c-0.5-0.1-0.9-0.5-1-1.1c-0.5-3.7-3.7-6.5-7.5-6.5c-0.8,0-1.5,0.1-2.3,0.4c-1.8,0.6-3.2,1.6-4.3,3.3
					l-0.1,0.2c0,0,0,0,0,0.1c-0.1,0.1-0.2,0.2-0.4,0.2h-0.1l0,0l-0.7-0.3c-0.8-0.3-1.6-0.5-2.4-0.5c-2.1,0-4,1.2-5,3.2
					c-0.2,0.4-0.6,0.7-1,0.8c-2,0.6-3.3,2.5-3,4.5c0.3,2.2,2,3.6,4.2,3.6H18c-0.3,0.4-0.5,0.9-0.8,1.3c-0.1,0.1-0.1,0.2-0.2,0.3
					h-2.7c-3.1,0-5.4-2-5.8-4.9c-0.4-2.8,1.4-5.5,4.2-6.3c1.4-2.5,3.8-4,6.5-4c0.9,0,1.9,0.2,2.8,0.5c1.2-1.7,2.8-2.8,4.8-3.4
					c0.9-0.3,1.8-0.4,2.7-0.4c1.2,0,2.4,0.2,3.4,0.7l0,0c0.4,0.1,0.7,0.3,1.1,0.5c0.2,0.1,0.3,0.2,0.5,0.3c0.4,0.2,0.7,0.5,1,0.8
					c1.6,1.4,2.8,3.4,3.1,5.7c0,0,0.1,0,0.1,0.1C40.7,22.2,41.8,24.5,41.4,26.7z"/>
			</g>
		</g>
	</g>
</g>
<path class="st2" d="M10.7,24.6c0,0-0.9,5.6,6.6,4.7C17.3,29.3,13,28.8,10.7,24.6z"/>
<path class="st3" d="M22.7,26.8c0.2,1.7,0,3.6,1,5.2c0.3,0.5,0.7,1,0.8,1.6c0.3,1-0.2,2.2-0.9,3c-0.4,0.5-1,0.9-1.6,1
	c-0.9,0.2-1.9-0.1-2.6-0.7c-0.4-0.4-0.6-0.9-0.7-1.4c-0.1-0.6,0-1.2,0.2-1.8c0.8-2.5,2.4-4.7,3.4-7.2c0-0.1,0.1-0.1,0.1-0.2
	c0.2-0.1,0.2,0.1,0.3,0.2C22.7,26.6,22.7,26.7,22.7,26.8z"/>
<path class="st3" d="M30,20.7c0.2,1.7,0,3.6,1,5.2c0.3,0.5,0.7,1,0.8,1.6c0.3,1-0.2,2.2-0.9,3c-0.4,0.5-1,0.9-1.6,1
	c-0.9,0.2-1.9-0.1-2.6-0.7c-0.4-0.4-0.6-0.9-0.7-1.4c-0.1-0.6,0-1.2,0.2-1.8c0.8-2.5,2.4-4.7,3.4-7.2c0-0.1,0.1-0.1,0.1-0.2
	c0.2-0.1,0.2,0.1,0.3,0.2C30,20.5,30,20.6,30,20.7z"/>
</svg>
