<?xml version="1.0" encoding="utf-8"?>
<!-- Generator: Adobe Illustrator 22.0.1, SVG Export Plug-In . SVG Version: 6.00 Build 0)  -->
<svg version="1.1" id="katman_1" xmlns="http://www.w3.org/2000/svg" xmlns:xlink="http://www.w3.org/1999/xlink" x="0px" y="0px"  height="50px" width="50px"
	 viewBox="0 0 50 50" style="enable-background:new 0 0 50 50;" xml:space="preserve">
<style type="text/css">
	.st0{fill:#FFFFFF;}
	.st1{fill:#505B78;}
	.st2{opacity:0.17;fill:#505B78;enable-background:new    ;}
	.st3{fill:#66CD54;}
</style>
<g>
	<path class="st0" d="M46.1,24v2L45,27.8l-2.3,1.4h-7.9l0,0v-2L34.1,25l-1.4-1.5L32,22.2l-0.8-2.1l-1.1-1.9l-1.4-1.5
		c0,0-0.2-0.1-0.6-0.2l1.7-1.5l1.6-1.6l2.6-0.6c0,0,2.7-0.1,2.8-0.2c0.1-0.1,3.1,1,3.1,1l1.4,1.5l1.1,1.9l0.8,2.1l0.7,1.3l1.4,1.5
		L46.1,24z"/>
	<path class="st0" d="M17,19.7l-3.3-0.5l-3.2,0.9l-1.3,1.5l-0.9,1.1l-1.6,0.6l-1.4,1.3l-0.9,1.6L4,27.8L5,30l1.3,1.1L8.8,32h4.6
		h18.5l2.3-1.4l1.1-1.8v-2l-0.8-2.2l-1.4-1.3L32.3,22l-0.8-2l-1-2l-1.4-1.4c0,0-3-1.1-3.1-1s-2.8,0.2-2.8,0.2l-2.6,0.6L18.9,18
		L17,19.7z"/>
	<g>
		<g>
			<path class="st1" d="M44.3,19.5C44.2,19.5,44.2,19.4,44.3,19.5c-0.4-2.3-1.5-4.3-3.2-5.7c-1.6-1.4-3.7-2.3-6-2.3
				c-0.9,0-1.8,0.1-2.7,0.4c-1.9,0.6-3.5,1.8-4.8,3.4c-0.4-0.2-0.9-0.3-1.4-0.4v0.5c0,0,1,0.2,2.1,0.8c0.1,0.1,0.3,0.1,0.4,0.2
				c1-1.5,2.4-2.5,4-3c0.7-0.2,1.5-0.3,2.3-0.3c3.8,0,7,2.8,7.5,6.5c0.1,0.5,0.5,1,0.8,1.2c1.4,0.9,2.2,2.6,1.9,4.2
				c-0.3,1.8-1.5,3-3.2,3.4c-0.3,0-0.6,0.1-1,0.1h-5.6c0,0.3-0.1,0.6-0.2,0.9c-0.1,0.2-0.2,0.5-0.3,0.7H41c0.5,0,0.9,0,1.3-0.1
				c2.3-0.5,4.1-2.3,4.5-4.6C47.3,23.1,46.3,20.7,44.3,19.5z"/>
		</g>
	</g>
	<path class="st2" d="M29.4,14.9c0,0,4.8,2.1,5.1,7c0,0,3.5,2.4,2.4,7h-2.2l0.1-3.6L32.6,23l-0.3-2.3l-3.1-3.6l-1.1-0.8L29.4,14.9z"
		/>
	<path class="st2" d="M11.4,29.5c-3-0.7-5.2-1.7-5.5-3.1c-0.1,0-0.1-0.1-0.2-0.1c-0.4,1-0.9,3.6,3.4,4.8h6
		C13.8,30.5,12.6,30,11.4,29.5z"/>
	<path class="st1" d="M35.9,28.3c-0.4,2.4-2.2,4.2-4.5,4.6C31,33,30.6,33,30.1,33h-4.8c-0.2-0.5-0.4-1.1-0.7-1.6h4.3l0,0h1.2
		c0.4,0,0.7,0,1-0.1c1.7-0.3,2.9-1.6,3.2-3.4c0.3-1.6-0.5-3.3-1.9-4.2c-0.3-0.2-0.7-0.7-0.8-1.2c-0.5-3.7-3.7-6.5-7.5-6.5
		c-0.8,0-1.5,0.1-2.3,0.3c-1.8,0.6-3.2,1.6-4.3,3.3L17.4,20c0,0,0,0,0,0.1c-0.1,0.1-0.2,0.2-0.4,0.2h-0.1l0,0L16.2,20
		c-0.8-0.3-1.6-0.5-2.4-0.5c-2.1,0-4,1.2-5,3.2c-0.2,0.4-0.6,0.7-1,0.8c-2,0.6-3.3,2.5-3,4.5c0.3,2.2,2,3.5,4.2,3.6h8.3
		c-0.3,0.5-0.5,1.1-0.7,1.6H9c-3.1,0-5.4-2-5.8-4.9c-0.4-2.8,1.4-5.5,4.2-6.3c1.4-2.5,3.8-4,6.5-4c0.9,0,1.9,0.2,2.8,0.5
		c1.2-1.7,2.8-2.8,4.8-3.4c0.9-0.3,1.8-0.4,2.7-0.4c2.3,0,4.4,0.8,6.1,2.3c1.6,1.4,2.8,3.4,3.1,5.7c0,0,0.1,0,0.1,0.1
		C35.3,23.8,36.3,26.1,35.9,28.3z"/>
</g>
<path class="st3" d="M21.8,29.4c0.2,1.7,0,3.6,1,5.2c0.3,0.5,0.7,1,0.8,1.6c0.3,1-0.2,2.2-0.9,3c-0.4,0.5-1,0.9-1.6,1
	c-0.9,0.2-1.9-0.1-2.6-0.7c-0.4-0.4-0.6-0.9-0.7-1.4c-0.1-0.6,0-1.2,0.2-1.8c0.8-2.5,2.4-4.7,3.4-7.2c0-0.1,0.1-0.1,0.1-0.2
	c0.2-0.1,0.2,0.1,0.3,0.2C21.8,29.2,21.8,29.3,21.8,29.4z"/>
</svg>
