<?xml version="1.0" encoding="utf-8"?>
<!-- Generator: Adobe Illustrator 21.0.0, SVG Export Plug-In . SVG Version: 6.00 Build 0)  -->
<svg version="1.1" id="katman_1" xmlns="http://www.w3.org/2000/svg" xmlns:xlink="http://www.w3.org/1999/xlink" x="0px" y="0px"
	 width="50px" height="50px" viewBox="0 0 50 50" style="enable-background:new 0 0 50 50;" xml:space="preserve">
<style type="text/css">
	.st0{fill:#FFFFFF;}
	.st1{fill:#505B78;}
	.st2{opacity:0.17;fill:#505B78;enable-background:new    ;}
	.st3{fill:#4D8FC6;}
</style>
<path class="st0" d="M46.2,19.7v2l-1.1,1.8l-2.3,1.4h-7.9l0,0v-2l-0.8-2.2l-1.4-1.5L32,17.9l-0.8-2.1l-1.1-1.9l-1.4-1.5
	c0,0-0.2-0.1-0.6-0.2l1.7-1.5l1.6-1.6L34,8.5c0,0,2.7-0.1,2.8-0.2s3.1,1,3.1,1l1.4,1.5l1.1,1.9l0.8,2.1L44,16l1.4,1.5L46.2,19.7z"/>
<path class="st0" d="M16.9,15.8l-3.3-0.5l-3.2,0.9l-1.3,1.5l-0.9,1.1l-1.6,0.6l-1.4,1.3l-0.9,1.6L3.8,24l1,2.2l1.3,1.1l2.5,0.9h4.6
	h18.5l2.3-1.4l1.1-1.8v-2l-0.8-2.2L33,19.4l-0.7-1.3l-0.8-2l-1.1-1.9L29,12.7c0,0-3-1.1-3.1-1s-2.8,0.2-2.8,0.2l-2.6,0.6l-1.6,1.6
	L16.9,15.8z"/>
<g>
	<g>
		<g>
			<path class="st1" d="M44.3,15.3C44.2,15.3,44.2,15.2,44.3,15.3c-0.4-2.3-1.5-4.3-3.2-5.7c-1.6-1.4-3.7-2.3-6-2.3
				c-0.9,0-1.8,0.1-2.7,0.4c-1.9,0.6-3.5,1.8-4.8,3.4c-0.4-0.2-0.9-0.3-1.4-0.4v0.5c0,0,1,0.2,2.1,0.8c0.1,0.1,0.3,0.1,0.4,0.2
				c1-1.5,2.4-2.5,4-3C33.4,9,34.2,8.9,35,8.9c3.8,0,7,2.8,7.5,6.5c0.1,0.5,0.5,1,0.8,1.2c1.4,0.9,2.2,2.6,1.9,4.2
				c-0.3,1.8-1.5,3-3.2,3.4c-0.3,0-0.6,0.1-1,0.1h-5.6c0,0.3-0.1,0.6-0.2,0.9c-0.1,0.2-0.2,0.5-0.3,0.7H41c0.5,0,0.9,0,1.3-0.1
				c2.3-0.5,4.1-2.3,4.5-4.6C47.3,18.9,46.3,16.6,44.3,15.3z"/>
		</g>
	</g>
	<g>
		<g>
			<path class="st1" d="M33.2,18.4C33.2,18.4,33.1,18.4,33.2,18.4c-0.4-2.3-1.5-4.3-3.1-5.7s-3.8-2.3-6-2.3c-0.9,0-1.8,0.1-2.7,0.4
				c-1.9,0.6-3.5,1.8-4.8,3.4c-0.9-0.4-1.8-0.5-2.8-0.5c-2.7,0-5.1,1.5-6.5,4c-2.8,0.8-4.6,3.4-4.2,6.3c0.4,3,2.7,5,5.8,5h6
				c-0.1-0.5-0.1-1.1-0.1-1.6H8.9c-2.3,0-3.9-1.4-4.2-3.6c-0.3-2,1-3.9,3-4.5c0.4-0.1,0.9-0.5,1-0.8c1.1-2,2.9-3.2,5-3.2
				c0.8,0,1.6,0.2,2.4,0.5l0.7,0.3l0,0c0.1,0,0.1,0,0.1,0c0.1,0,0.3-0.1,0.4-0.2c0,0,0,0,0-0.1l0.1-0.2c1.1-1.7,2.5-2.8,4.3-3.3
				c0.7-0.2,1.5-0.4,2.3-0.4c3.8,0,7,2.8,7.5,6.5c0.1,0.5,0.5,1,0.8,1.2c1.4,0.9,2.2,2.6,1.9,4.2c-0.3,1.8-1.5,3-3.2,3.4
				c-0.3,0.1-0.6,0.1-1,0.1h-1.7c0,0.5,0,1.1-0.1,1.6H30c0.5,0,0.9,0,1.3-0.1c2.4-0.5,4.1-2.3,4.5-4.6
				C36.2,22.1,35.2,19.7,33.2,18.4z"/>
		</g>
	</g>
	<path class="st2" d="M29.3,10.8c0,0,4.8,2.1,5.1,7c0,0,3.5,2.4,2.4,7h-2.2l0.1-3.6L32.5,19l-0.3-2.3L29.1,13L28,12.2L29.3,10.8z"/>
	<path class="st2" d="M11.4,25.3c-3-0.7-5.2-1.7-5.5-3.1c-0.1,0-0.1-0.1-0.2-0.1c-0.4,1-0.9,3.6,3.4,4.8h6
		C13.8,26.3,12.6,25.8,11.4,25.3z"/>
	<path class="st3" d="M27.2,28.2c0,0.4-0.4,0.8-0.8,0.8h-2.9l2.1,2.1c0.3,0.3,0.3,0.8,0,1.1c-0.3,0.3-0.8,0.3-1.1,0l-2.1-2.1V33
		c0,0.4-0.4,0.8-0.8,0.8s-0.8-0.4-0.8-0.8v-2.9l-2.1,2.1c-0.3,0.3-0.8,0.3-1.1,0c-0.3-0.3-0.3-0.8,0-1.1l2.1-2.1h-2.9
		c-0.4,0-0.8-0.4-0.8-0.8s0.4-0.8,0.8-0.8h2.9l-2.1-2.1c-0.3-0.3-0.3-0.8,0-1.1C17.8,24,18,24,18.2,24s0.4,0.1,0.6,0.2l2.1,2.1v-2.9
		c0-0.5,0.4-0.8,0.8-0.8s0.8,0.4,0.8,0.8v2.9l2.1-2.1c0.3-0.3,0.8-0.3,1.1,0c0.1,0.1,0.2,0.4,0.2,0.6s-0.1,0.4-0.2,0.6l-2.1,2.1h2.9
		C26.9,27.4,27.2,27.7,27.2,28.2z"/>
	<path class="st3" d="M18.5,37c0,0.4-0.4,0.8-0.8,0.8h-2.9l2.1,2.1c0.3,0.3,0.3,0.8,0,1.1s-0.8,0.3-1.1,0l-2.1-2.1v2.9
		c0,0.4-0.4,0.8-0.8,0.8c-0.4,0-0.8-0.4-0.8-0.8v-2.9L9.9,41c-0.3,0.3-0.8,0.3-1.1,0s-0.3-0.8,0-1.1l2.1-2.1h-3
		c-0.4,0-0.8-0.4-0.8-0.8c0-0.4,0.4-0.8,0.8-0.8h2.9l-2.1-2.1c-0.3-0.3-0.3-0.8,0-1.1c0.2-0.2,0.4-0.2,0.6-0.2
		c0.2,0,0.4,0.1,0.6,0.2l2.1,2.1v-2.9c0-0.5,0.4-0.8,0.8-0.8c0.4,0,0.8,0.4,0.8,0.8v2.9l2.1-2.1c0.3-0.3,0.8-0.3,1.1,0
		c0.1,0.1,0.2,0.4,0.2,0.6c0,0.2-0.1,0.4-0.2,0.6l-2.1,2.1h2.9C18.1,36.2,18.5,36.6,18.5,37z"/>
</g>
</svg>
