<?xml version="1.0" encoding="utf-8"?>
<!-- Generator: Adobe Illustrator 16.0.0, SVG Export Plug-In . SVG Version: 6.00 Build 0)  -->
<!DOCTYPE svg PUBLIC "-//W3C//DTD SVG 1.1//EN" "http://www.w3.org/Graphics/SVG/1.1/DTD/svg11.dtd">
<svg version="1.1" id="katman_1" xmlns="http://www.w3.org/2000/svg" xmlns:xlink="http://www.w3.org/1999/xlink" x="0px" y="0px"
	 width="50px" height="50px" viewBox="0 0 50 50" enable-background="new 0 0 50 50" xml:space="preserve">
<g>
	<circle fill="#505B79" cx="25.337" cy="23.969" r="0.791"/>
	<circle fill="#505B79" cx="28.783" cy="22.418" r="0.367"/>
	<circle fill="#505B79" cx="30.854" cy="21.882" r="0.367"/>
	<circle fill="#505B79" cx="33.068" cy="18.918" r="0.367"/>
	<circle fill="#505B79" cx="26.412" cy="20.76" r="0.368"/>
	<circle fill="#505B79" cx="28.416" cy="26.038" r="0.367"/>
	<circle fill="#505B79" cx="30.543" cy="26.571" r="0.297"/>
	<circle fill="#505B79" cx="32.297" cy="26.479" r="0.224"/>
	<circle fill="#505B79" cx="31.033" cy="25.536" r="0.188"/>
	<circle fill="#505B79" cx="32.543" cy="25.133" r="0.189"/>
	<circle fill="#505B79" cx="34.004" cy="25.134" r="0.188"/>
	<circle fill="#505B79" cx="34.467" cy="24.033" r="0.188"/>
	<circle fill="#505B79" cx="34.467" cy="22.248" r="0.189"/>
	<circle fill="#505B79" cx="30.486" cy="23.048" r="0.188"/>
	<circle fill="#505B79" cx="29.85" cy="20.948" r="0.188"/>
	<circle fill="#505B79" cx="13.553" cy="20.063" r="0.188"/>
	<circle fill="#505B79" cx="23.803" cy="20.608" r="0.716"/>
	<path fill="#505B79" d="M16.051,18.125c0.066,0.252-0.082,0.511-0.334,0.58c-0.252,0.067-0.513-0.083-0.58-0.334
		c-0.066-0.25,0.082-0.511,0.335-0.58S15.982,17.874,16.051,18.125z"/>
	<circle fill="#505B79" cx="11.476" cy="19.125" r="0.694"/>
	<circle fill="#505B79" cx="27.488" cy="19.546" r="0.092"/>
	<circle fill="#505B79" cx="26.74" cy="22.142" r="0.091"/>
	<circle fill="#505B79" cx="13.002" cy="18.366" r="0.09"/>
	<circle fill="#505B79" cx="10.617" cy="21.483" r="0.079"/>
	<circle fill="#505B79" cx="10.748" cy="25.563" r="0.699"/>
	<circle fill="#505B79" cx="37.248" cy="20.571" r="0.862"/>
	<circle fill="#505B79" cx="17.957" cy="25.496" r="0.367"/>
	<path fill="#505B79" d="M38.707,21.774c0.203,0,0.365,0.165,0.365,0.367c0,0.204-0.162,0.368-0.365,0.368
		c-0.205,0-0.369-0.164-0.369-0.368C38.338,21.939,38.502,21.774,38.707,21.774z"/>
	<path fill="#505B79" d="M26.414,25.497c0.201,0,0.365,0.165,0.365,0.367s-0.164,0.367-0.365,0.367
		c-0.205,0-0.369-0.165-0.369-0.367S26.209,25.497,26.414,25.497z"/>
	<circle fill="#505B79" cx="25.39" cy="22.1" r="0.368"/>
	<circle fill="#505B79" cx="21.471" cy="20.967" r="0.367"/>
	<circle fill="#505B79" cx="18.049" cy="20.232" r="0.367"/>
	<circle fill="#505B79" cx="11.45" cy="22.344" r="0.367"/>
	<circle fill="#505B79" cx="15.556" cy="20.232" r="0.367"/>
	<circle fill="#505B79" cx="40.645" cy="22.711" r="0.367"/>
	<circle fill="#505B79" cx="31.063" cy="23.675" r="0.188"/>
	<circle fill="#505B79" cx="32.521" cy="23.676" r="0.188"/>
	<circle fill="#505B79" cx="36.875" cy="24.535" r="0.368"/>
	<circle fill="#505B79" cx="39.004" cy="25.065" r="0.298"/>
	<circle fill="#505B79" cx="34.83" cy="28.768" r="0.225"/>
	<circle fill="#505B79" cx="35.076" cy="27.422" r="0.188"/>
	<circle fill="#505B79" cx="36.537" cy="27.422" r="0.188"/>
	<circle fill="#505B79" cx="37" cy="26.322" r="0.188"/>
	<circle fill="#505B79" cx="35.057" cy="25.965" r="0.188"/>
	<circle fill="#505B79" cx="39.41" cy="26.823" r="0.368"/>
	<circle fill="#505B79" cx="41.537" cy="27.355" r="0.298"/>
	<circle fill="#505B79" cx="32.984" cy="22.575" r="0.189"/>
	<circle fill="#505B79" cx="34.229" cy="20.698" r="0.225"/>
	<circle fill="#505B79" cx="34.473" cy="19.353" r="0.187"/>
	<path fill="#505B79" d="M36.123,19.354c0,0.103-0.088,0.187-0.188,0.187c-0.107,0-0.191-0.084-0.191-0.187
		c0-0.105,0.084-0.189,0.191-0.189C36.037,19.164,36.123,19.248,36.123,19.354z"/>
	<circle fill="#505B79" cx="36.396" cy="18.252" r="0.189"/>
	<circle fill="#505B79" cx="28.783" cy="20.473" r="0.188"/>
	<circle fill="#505B79" cx="34.453" cy="17.893" r="0.189"/>
	<circle fill="#505B79" cx="28.236" cy="24.086" r="0.188"/>
	<circle fill="#505B79" cx="32.984" cy="20.792" r="0.189"/>
	<circle fill="#505B79" cx="22.688" cy="24.617" r="0.188"/>
	<circle fill="#505B79" cx="18.06" cy="24.092" r="0.189"/>
	<circle fill="#505B79" cx="13.113" cy="23.545" r="0.189"/>
	<circle fill="#505B79" cx="12.933" cy="25.032" r="0.092"/>
	<circle fill="#505B79" cx="14.078" cy="20.789" r="0.188"/>
	<circle fill="#505B79" cx="17.498" cy="21.156" r="0.188"/>
	<circle fill="#505B79" cx="19.79" cy="20.6" r="0.188"/>
	<circle fill="#505B79" cx="23.639" cy="22.607" r="0.187"/>
	<circle fill="#505B79" cx="20.446" cy="25.208" r="0.657"/>
	<circle fill="#505B79" cx="18.307" cy="22.288" r="0.627"/>
	<circle fill="#505B79" cx="14.604" cy="25.545" r="0.716"/>
	<circle fill="#505B79" cx="15.556" cy="22.321" r="0.473"/>
	<circle fill="#505B79" cx="21.193" cy="23.175" r="0.091"/>
	<circle fill="#505B79" cx="36.91" cy="18.815" r="0.091"/>
	<circle fill="#505B79" cx="16.944" cy="23.995" r="0.092"/>
	<circle fill="#505B79" cx="13.023" cy="21.762" r="0.09"/>
	<circle fill="#505B79" cx="10.764" cy="22.938" r="0.093"/>
	<g>
		<path fill="#000100" d="M8.943,11.965v0.101c-0.127-0.033-0.256-0.05-0.389-0.05s-0.262,0.017-0.389,0.048v-0.1H8.943z"/>
		<path fill="#505B79" d="M8.943,12.06v25.863H8.166V12.06c0.127-0.028,0.256-0.042,0.389-0.042
			C8.688,12.016,8.816,12.03,8.943,12.06z"/>
		<g>
			<g>
				<path fill="#FFFFFF" d="M14.42,12.619c0,0,3.355,0.802,4.859,1.303l-0.387,4.807l-5.229-1.149L14.42,12.619z"/>
				<path fill="#FFFFFF" d="M22.799,15.098c0,0,4.363,1.497,5.262,1.814l-0.379,3.236l-1.289-0.131l-2.828-0.924l-2.238-0.833
					l0.161-1.956L22.799,15.098z"/>
				<path fill="#E52C22" d="M14.545,13.05c0.064-0.271,0.084-0.36-0.015-0.404c0,0-0.003,0-0.004,0
					c-0.027-0.011-0.062-0.02-0.105-0.025v-0.001c-0.037-0.004-0.079-0.012-0.127-0.016c-0.482-0.06-0.967-0.116-1.451-0.174
					c-0.913-0.111-1.827-0.224-2.739-0.335c-0.01,0-0.016-0.001-0.025-0.004c-0.016-0.001-0.035-0.003-0.054-0.006v0.003
					c-0.021,0.184-0.136,0.141-0.221,0.12c-0.013-0.003-0.026-0.004-0.038-0.006c-0.018,0.044-0.027,0.108-0.031,0.195
					c-0.012,0.302-0.018,0.605-0.021,0.91c0.017,0.006,0.021,0.029,0,0.087c-0.002,0.062-0.003,0.124-0.004,0.187
					c-0.015,0.831-0.026,1.664-0.018,2.495c0.007-0.007,0.013-0.013,0.016-0.02c-0.006,0.017-0.01,0.034-0.014,0.051
					c0.004,0.366,0.012,0.729,0.025,1.096c0.049-0.008,0.098,0.01,0.131,0.08c0.041,0.088,0.041,0.198-0.003,0.293
					c-0.021,0.04-0.046,0.078-0.08,0.111c-0.075,0.071-0.142,0.161-0.212,0.241c0,0.011-0.003,0.027,0.002,0.031
					c0.105,0.125,0.129,0.214,0.092,0.376c0.037,0.093,0.107,0.057,0.164,0.06c0.004,0,0.01,0.001,0.014,0.001
					c0.025,0.001,0.049,0.002,0.072,0.002c0.24,0.004,0.483-0.025,0.701,0.057c0.768,0.289,1.547,0.363,2.338,0.386
					c0.368,0.009,0.742-0.045,1.107,0.091c0.174-0.23,0.118-0.538,0.17-0.809c0.026-0.135,0.048-0.273,0.064-0.41
					c0.08-0.622,0.064-1.253,0-1.882c-0.01-0.218-0.012-0.439-0.022-0.657c-0.015-0.228,0.038-0.493-0.069-0.673
					c-0.019-0.034-0.033-0.067-0.04-0.091c-0.016-0.056-0.005-0.096,0.019-0.127c0.072-0.1,0.27-0.121,0.193-0.289
					c-0.002-0.005,0.008-0.02,0.008-0.031C14.385,13.647,14.473,13.352,14.545,13.05z"/>
				<path fill="#E52C22" d="M18.613,17.011c0.02-0.684,0.066-1.363-0.043-2.051c-0.055-0.351,0.136-0.714,0.256-1.048
					c0.055-0.152,0.228-0.064,0.337-0.028c1.093,0.36,2.183,0.73,3.272,1.097c0.016,0.005,0.033,0.018,0.051,0.022
					c0.68,0.224,0.65,0.06,0.449,1.03c-0.05,0.233,0.117,0.337,0.099,0.524c0,0.044,0,0.09,0.001,0.134c0,0.063,0,0.127-0.001,0.191
					c-0.04,0.469-0.062,0.937-0.12,1.398c-0.063,0.521-0.132,1.05-0.389,1.502c-0.759-0.011-1.501-0.182-2.253-0.28
					c-0.566-0.073-1.132-0.167-1.693-0.248c-0.106-0.014-0.221,0.006-0.288-0.125c0.135-0.349,0.257-0.704,0.273-1.095
					C18.579,17.693,18.543,17.347,18.613,17.011z"/>
				<path fill="#E52C22" d="M31.396,18.585c-0.08,0.47,0,0.95-0.086,1.418c-0.014,0.083-0.01,0.175-0.072,0.235
					c-0.051,0.172-0.092,0.352-0.154,0.517c-0.145,0.379-0.334,0.524-0.682,0.473c-0.699-0.103-1.395-0.228-2.088-0.343
					c-0.52-0.087-1.039-0.171-1.561-0.256c-0.023-0.019-0.049-0.037-0.076-0.054v-0.001c0.293-0.446,0.42-0.963,0.428-1.528
					c0.068-0.472,0.1-0.939,0.018-1.423c-0.051-0.301,0.105-0.609,0.074-0.936c-0.014-0.099,0.113-0.039,0.172-0.019
					c0.768,0.269,1.535,0.538,2.303,0.814c0.432,0.155,0.867,0.323,1.295,0.487c0.088,0.032,0.172,0.064,0.223,0.167
					C31.35,18.226,31.426,18.409,31.396,18.585z"/>
				<path fill="#EBC2D4" d="M18.613,17.011c-0.07,0.336-0.034,0.682-0.049,1.024c-0.017,0.39-0.142,0.746-0.273,1.095
					c-0.391,0.159-0.783,0.027-1.164-0.029c-0.562-0.081-1.108-0.091-1.668-0.001c-0.471,0.074-0.957,0.08-1.412-0.167
					c0.174-0.23,0.116-0.538,0.17-0.809c0.146-0.756,0.143-1.523,0.064-2.292c0.013,0.003,0.031,0.003,0.045,0.001l-0.002-0.003
					c0.109,0.239,0.286,0.208,0.46,0.174c0.464-0.088,0.903-0.359,1.386-0.305c0.264,0.03,0.537-0.004,0.779,0.207
					c0.032,0.029,0.199-0.033,0.303-0.051c0.114-0.019,0.23-0.019,0.346-0.021c0.062-0.001,0.151-0.007,0.151,0.089
					c-0.007,0.48,0.214,0.184,0.325,0.133c0.125-0.057,0.23-0.093,0.348,0.001c0.023,0.124-0.121,0.035-0.115,0.132
					c0.02,0.168,0.154,0.057,0.27,0.195c-0.533-0.016-0.926,0.244-1.26,0.701c0.461,0,0.753-0.58,1.228-0.476
					c0.052,0.083-0.237,0.057-0.058,0.195c-0.049,0.074-0.072,0.178-0.158,0.213c-0.059,0.023-0.116,0.046-0.176,0.074
					c-0.076,0.036-0.177,0.095-0.14,0.196c0.041,0.111,0.134,0.04,0.205-0.011C18.35,17.186,18.48,17.099,18.613,17.011z
					 M16.703,16.023c-0.142,0.217-0.284,0.385-0.479,0.475c-0.037,0.017-0.063,0.05-0.039,0.094
					c0.014,0.031,0.051,0.065,0.078,0.068C16.457,16.685,16.709,16.343,16.703,16.023z"/>
				<path fill="#EBC2D4" d="M26.801,19.062c-0.217-0.155-0.463-0.175-0.715-0.205c-0.492-0.056-0.933-0.322-1.212-0.816
					c-0.169-0.297-0.367-0.448-0.61-0.606c-0.263-0.172-0.615-0.083-0.81-0.438c-0.01-0.018-0.063-0.03-0.071-0.018
					c-0.164,0.219-0.233-0.059-0.349-0.096c-0.04,0.467-0.062,0.936-0.12,1.398c-0.008,0.063-0.014,0.127-0.023,0.189
					c-0.006,0.043-0.012,0.085-0.016,0.128c-0.008,0.034-0.012,0.068-0.016,0.103c-0.004,0.021-0.006,0.045-0.01,0.068
					c-0.008,0.033-0.014,0.064-0.018,0.097c-0.006,0.031-0.014,0.064-0.019,0.095c-0.005,0.026-0.009,0.05-0.015,0.073
					c-0.007,0.031-0.013,0.062-0.02,0.093c-0.006,0.025-0.012,0.048-0.019,0.073c-0.003,0.007-0.003,0.013-0.005,0.02
					c-0.008,0.03-0.018,0.059-0.025,0.09c-0.008,0.026-0.017,0.05-0.025,0.076c-0.01,0.031-0.021,0.061-0.033,0.091
					c-0.004,0.013-0.011,0.026-0.014,0.039c-0.008,0.02-0.014,0.04-0.024,0.057c-0.011,0.028-0.024,0.056-0.037,0.083
					c0,0.001,0,0.001,0,0.001c-0.009,0.016-0.015,0.028-0.021,0.041c-0.008,0.016-0.014,0.029-0.023,0.043
					c-0.008,0.014-0.014,0.028-0.024,0.042h0.001c0.143,0.062,0.284,0.116,0.438,0.141c0.668,0.108,1.334,0.247,2.002,0.352
					c0.574,0.091,1.131,0.299,1.715,0.299c0.289-0.446,0.416-0.963,0.426-1.528C27.004,19.039,26.922,19.147,26.801,19.062z
					 M26.869,19.654c-0.039-0.146,0.014-0.258,0.082-0.363C26.979,19.436,26.93,19.545,26.869,19.654z"/>
			</g>
			<path fill="#E52C22" d="M10.104,12.092c-0.008,0-0.016,0-0.025-0.001c-0.017,0-0.037,0-0.054-0.003
				c-0.116-0.006-0.212-0.016-0.259,0.114c-0.018,0.044-0.027,0.108-0.031,0.195c-0.012,0.302-0.018,0.605-0.021,0.91
				c0,0.029,0,0.057,0,0.087c-0.002,0.062-0.003,0.124-0.004,0.187c-0.015,0.831-0.026,1.664-0.018,2.495
				c0,0.009,0,0.02,0.002,0.032c0.004,0.366,0.012,0.729,0.025,1.096c0.002,0.039,0.004,0.076,0.007,0.116
				c0.067,0.083,0.105,0.169,0.118,0.258c0.033,0.178-0.023,0.363-0.057,0.547c-0.024,0.132-0.027,0.245,0.039,0.273
				c0.018,0.008,0.043,0.01,0.072,0.002c0.036-0.007,0.076-0.022,0.127-0.051c-0.197-0.265,0.046-0.508,0.039-0.771
				c-0.029-1.395-0.016-2.792-0.009-4.186c0.005-0.432-0.034-0.868,0.048-1.296C10.104,12.094,10.104,12.093,10.104,12.092z
				 M9.836,16.604v-2.896h0.047v2.896H9.836z"/>
		</g>
	</g>
	<circle fill="#505B79" cx="21.04" cy="30.319" r="0.701"/>
	<circle fill="#505B79" cx="24.852" cy="35.134" r="0.791"/>
	<circle fill="#505B79" cx="25.021" cy="30.254" r="0.367"/>
	<circle fill="#505B79" cx="28.295" cy="33.585" r="0.367"/>
	<circle fill="#505B79" cx="30.365" cy="33.047" r="0.367"/>
	<circle fill="#505B79" cx="32.582" cy="30.083" r="0.368"/>
	<circle fill="#505B79" cx="25.926" cy="31.925" r="0.368"/>
	<circle fill="#505B79" cx="10.218" cy="32.001" r="0.367"/>
	<circle fill="#505B79" cx="11.122" cy="33.672" r="0.368"/>
	<circle fill="#505B79" cx="18.939" cy="27.766" r="0.319"/>
	<circle fill="#505B79" cx="15.914" cy="27.919" r="0.318"/>
	<circle fill="#505B79" cx="14.566" cy="27.396" r="0.368"/>
	<circle fill="#505B79" cx="27.93" cy="37.204" r="0.368"/>
	<path fill="#505B79" d="M30.055,37.438c0.166,0,0.301,0.134,0.301,0.298c0,0.165-0.135,0.299-0.301,0.299
		c-0.162,0-0.297-0.134-0.297-0.299C29.758,37.572,29.893,37.438,30.055,37.438z"/>
	<circle fill="#505B79" cx="31.811" cy="37.644" r="0.224"/>
	<circle fill="#505B79" cx="30.545" cy="36.702" r="0.189"/>
	<circle fill="#505B79" cx="32.055" cy="36.298" r="0.189"/>
	<circle fill="#505B79" cx="33.516" cy="36.299" r="0.188"/>
	<circle fill="#505B79" cx="33.979" cy="35.199" r="0.188"/>
	<circle fill="#505B79" cx="33.979" cy="33.413" r="0.188"/>
	<circle fill="#505B79" cx="29.998" cy="34.213" r="0.189"/>
	<path fill="#505B79" d="M29.361,31.926c0.105,0,0.189,0.084,0.189,0.188c0,0.104-0.084,0.188-0.189,0.188
		c-0.102,0-0.186-0.084-0.186-0.188C29.176,32.01,29.26,31.926,29.361,31.926z"/>
	<circle fill="#505B79" cx="31.727" cy="29.374" r="0.188"/>
	<circle fill="#505B79" cx="27.098" cy="28.85" r="0.189"/>
	<circle fill="#505B79" cx="13.064" cy="31.228" r="0.188"/>
	<circle fill="#505B79" cx="23.225" cy="29.788" r="0.09"/>
	<circle fill="#505B79" cx="13.28" cy="28.316" r="0.189"/>
	<circle fill="#505B79" cx="16.68" cy="27.786" r="0.188"/>
	<circle fill="#505B79" cx="17.453" cy="27.837" r="0.162"/>
	<circle fill="#505B79" cx="22.919" cy="27.081" r="0.188"/>
	<circle fill="#505B79" cx="29.484" cy="29.965" r="0.656"/>
	<circle fill="#505B79" cx="17.687" cy="28.155" r="0.627"/>
	<circle fill="#505B79" cx="23.316" cy="31.773" r="0.716"/>
	<path fill="#505B79" d="M15.563,29.291c0.067,0.252-0.08,0.511-0.332,0.579c-0.253,0.068-0.514-0.082-0.579-0.334
		c-0.068-0.251,0.08-0.512,0.333-0.58C15.236,28.888,15.496,29.039,15.563,29.291z"/>
	<circle fill="#505B79" cx="10.988" cy="30.29" r="0.694"/>
	<circle fill="#505B79" cx="20.705" cy="28.265" r="0.092"/>
	<circle fill="#505B79" cx="27" cy="30.712" r="0.091"/>
	<path fill="#505B79" d="M26.252,33.218c0.053,0,0.094,0.039,0.094,0.089c0,0.052-0.041,0.092-0.094,0.092
		c-0.049,0-0.088-0.04-0.088-0.092C26.164,33.257,26.203,33.218,26.252,33.218z"/>
	<path fill="#505B79" d="M26.07,28.661c0.053,0,0.094,0.04,0.094,0.09c0,0.052-0.041,0.093-0.094,0.093
		c-0.049,0-0.09-0.041-0.09-0.093C25.98,28.701,26.021,28.661,26.07,28.661z"/>
	<circle fill="#505B79" cx="12.516" cy="29.532" r="0.091"/>
	<circle fill="#505B79" cx="10.13" cy="32.648" r="0.079"/>
	<circle fill="#505B79" cx="10.261" cy="36.729" r="0.698"/>
	<circle fill="#505B79" cx="36.76" cy="31.736" r="0.861"/>
	<circle fill="#505B79" cx="17.47" cy="36.662" r="0.367"/>
	<path fill="#505B79" d="M38.221,32.939c0.201,0,0.365,0.165,0.365,0.367c0,0.204-0.164,0.368-0.365,0.368
		c-0.205,0-0.367-0.164-0.367-0.368C37.854,33.104,38.016,32.939,38.221,32.939z"/>
	<circle fill="#505B79" cx="24.471" cy="27.384" r="0.367"/>
	<circle fill="#505B79" cx="25.926" cy="37.03" r="0.368"/>
	<circle fill="#505B79" cx="24.902" cy="33.265" r="0.368"/>
	<circle fill="#505B79" cx="20.983" cy="32.133" r="0.368"/>
	<circle fill="#505B79" cx="17.561" cy="31.397" r="0.367"/>
	<circle fill="#505B79" cx="15.07" cy="31.397" r="0.367"/>
	<circle fill="#505B79" cx="40.156" cy="33.876" r="0.368"/>
	<circle fill="#505B79" cx="30.576" cy="34.841" r="0.189"/>
	<circle fill="#505B79" cx="32.035" cy="34.842" r="0.188"/>
	<circle fill="#505B79" cx="36.389" cy="35.7" r="0.368"/>
	<circle fill="#505B79" cx="38.516" cy="36.231" r="0.297"/>
	<circle fill="#505B79" cx="32.498" cy="33.741" r="0.189"/>
	<path fill="#505B79" d="M33.742,31.638c0.121,0,0.223,0.103,0.223,0.226c0,0.125-0.102,0.225-0.223,0.225
		c-0.127,0-0.227-0.1-0.227-0.225C33.516,31.74,33.615,31.638,33.742,31.638z"/>
	<circle fill="#505B79" cx="33.984" cy="30.518" r="0.187"/>
	<path fill="#505B79" d="M35.635,30.519c0,0.103-0.086,0.187-0.186,0.187c-0.109,0-0.191-0.084-0.191-0.187
		c0-0.105,0.082-0.189,0.191-0.189C35.551,30.329,35.635,30.413,35.635,30.519z"/>
	<circle fill="#505B79" cx="35.908" cy="29.417" r="0.188"/>
	<circle fill="#505B79" cx="28.295" cy="31.638" r="0.188"/>
	<circle fill="#505B79" cx="33.967" cy="29.059" r="0.188"/>
	<circle fill="#505B79" cx="27.748" cy="35.251" r="0.188"/>
	<circle fill="#505B79" cx="32.498" cy="31.957" r="0.189"/>
	<circle fill="#505B79" cx="22.201" cy="35.782" r="0.188"/>
	<circle fill="#505B79" cx="17.572" cy="35.258" r="0.188"/>
	<circle fill="#505B79" cx="12.628" cy="34.71" r="0.189"/>
	<circle fill="#505B79" cx="12.445" cy="36.197" r="0.092"/>
	<circle fill="#505B79" cx="13.59" cy="31.955" r="0.187"/>
	<circle fill="#505B79" cx="17.012" cy="32.322" r="0.188"/>
	<circle fill="#505B79" cx="19.303" cy="31.766" r="0.188"/>
	<circle fill="#505B79" cx="23.152" cy="33.772" r="0.187"/>
	<circle fill="#505B79" cx="19.959" cy="36.373" r="0.656"/>
	<circle fill="#505B79" cx="17.82" cy="33.453" r="0.627"/>
	<circle fill="#505B79" cx="14.116" cy="36.71" r="0.716"/>
	<circle fill="#505B79" cx="15.07" cy="33.486" r="0.473"/>
	<circle fill="#505B79" cx="20.707" cy="34.34" r="0.09"/>
	<circle fill="#505B79" cx="17.475" cy="37.12" r="0.092"/>
	<path fill="#505B79" d="M36.424,29.889c0.051,0,0.09,0.04,0.09,0.092c0,0.05-0.039,0.091-0.09,0.091
		c-0.053,0-0.094-0.041-0.094-0.091C36.33,29.929,36.371,29.889,36.424,29.889z"/>
	<circle fill="#505B79" cx="16.457" cy="35.161" r="0.091"/>
	<circle fill="#505B79" cx="12.537" cy="32.927" r="0.09"/>
	<circle fill="#505B79" cx="10.277" cy="34.104" r="0.093"/>
	<circle fill="#505B79" cx="22.031" cy="28.488" r="0.188"/>
	<circle fill="#505B79" cx="22.031" cy="26.704" r="0.188"/>
</g>
</svg>
