<?xml version="1.0" encoding="utf-8"?>
<!-- Generator: Adobe Illustrator 16.0.0, SVG Export Plug-In . SVG Version: 6.00 Build 0)  -->
<!DOCTYPE svg PUBLIC "-//W3C//DTD SVG 1.1//EN" "http://www.w3.org/Graphics/SVG/1.1/DTD/svg11.dtd">
<svg version="1.1" id="katman_1" xmlns="http://www.w3.org/2000/svg" xmlns:xlink="http://www.w3.org/1999/xlink" x="0px" y="0px"
	 width="50px" height="50px" viewBox="0 0 50 50" enable-background="new 0 0 50 50" xml:space="preserve">
<g>
	<g>
		<g>
			<path fill="#54C0D6" d="M22.139,25.529c-0.311,1.56-1.341,2.82-2.801,3.449c-0.599,0.25-1.23,0.381-1.859,0.381
				c-1.352,0-2.66-0.58-3.59-1.602c-0.932-1.01-1.392-2.309-1.291-3.68c0.059-0.531,0.5-0.812,0.909-0.812
				c0.229,0,0.45,0.102,0.611,0.262c0.138,0.16,0.199,0.359,0.189,0.6c-0.07,0.93,0.221,1.82,0.84,2.5
				c0.59,0.642,1.451,1.011,2.351,1.011c0.36,0,0.721-0.061,1.062-0.181c0.949-0.319,1.639-1.08,1.889-2.1
				c0.281-1.1-0.018-2.28-0.779-3.06L9.778,12.4c-0.159-0.16-0.25-0.381-0.25-0.61c0-0.47,0.381-0.86,0.861-0.86
				c0.158,0,0.318,0.05,0.448,0.131L20.89,21.109C22.008,22.29,22.479,23.939,22.139,25.529z"/>
		</g>
	</g>
	<g>
		<g>
			<path fill="#54C0D6" d="M39.986,20.258c-0.84,2.081-2.67,3.581-4.891,4.031c-0.4,0.081-0.81,0.12-1.229,0.12
				c-1.7,0-3.39-0.67-4.63-1.841c-0.041-0.029-0.08-0.069-0.12-0.109l-9.939-9.939l-0.23-0.23l-0.04-0.04v-0.01
				c-0.08-0.141-0.13-0.29-0.13-0.45c0-0.479,0.39-0.87,0.869-0.87c0.181,0,0.361,0.061,0.511,0.18l10.161,10.15
				c0.93,0.911,2.18,1.42,3.488,1.42c2.062,0,3.86-1.199,4.61-3.059c0.59-1.441,0.44-3.131-0.42-4.521
				c-0.871-1.429-2.47-2.279-4.271-2.279c-0.17,0-0.319,0.009-0.479,0.021c-0.46,0.018-0.83-0.29-0.851-0.761
				c-0.01-0.42,0.271-0.888,0.811-0.949h0.141c0.149-0.009,0.299-0.01,0.438-0.009c2.211,0,4.301,1.109,5.591,2.978
				C40.577,15.811,40.809,18.231,39.986,20.258z"/>
		</g>
	</g>
	<g>
		<g>
			<path fill="#54C0D6" d="M33.479,33.509c-0.449,2.271-2.052,4.21-4.16,5.07c-0.801,0.319-1.709,0.5-2.619,0.5
				c-1.389,0.001-2.729-0.41-3.78-1.14c-2.14-1.472-3.281-3.86-3.06-6.381c0.049-0.551,0.5-0.841,0.919-0.841
				c0.25,0,0.48,0.091,0.63,0.261c0.138,0.17,0.21,0.381,0.19,0.621c-0.169,2.028,0.75,3.959,2.35,4.938
				c0.85,0.521,1.819,0.79,2.81,0.79c0.672,0,1.301-0.12,1.9-0.359c1.57-0.65,2.689-1.99,3.05-3.681
				c0.358-1.729-0.149-3.5-1.351-4.74l-16.141-16.13c-0.25-0.259-0.32-0.6-0.189-0.919c0.15-0.34,0.479-0.57,0.83-0.569
				c0.22,0,0.43,0.09,0.6,0.26l16.13,16.128l0.109,0.111C33.248,29.1,33.918,31.37,33.479,33.509z"/>
		</g>
	</g>
</g>
</svg>
