<?xml version="1.0" encoding="utf-8"?>
<!-- Generator: Adobe Illustrator 22.0.1, SVG Export Plug-In . SVG Version: 6.00 Build 0)  -->
<svg version="1.1" id="katman_1" xmlns="http://www.w3.org/2000/svg" xmlns:xlink="http://www.w3.org/1999/xlink" x="0px" y="0px"  height="50px" width="50px"
	 viewBox="0 0 50 50" style="enable-background:new 0 0 50 50;" xml:space="preserve">
<style type="text/css">
	.st0{fill:#FFFFFF;}
	.st1{fill:#505B79;}
	.st2{opacity:0.17;fill:#505B79;enable-background:new    ;}
	.st3{fill:#4D8FC6;}
	.st4{fill:#66CD54;}
</style>
<g>
	<path class="st0" d="M17,19.3l-3.2-0.5l-3.1,0.9l-1.3,1.6l-0.9,1.2l-1.6,0.6l-1.4,1.3L4.6,26l-0.4,1.7L5.1,30l1.3,1.2L8.9,32h4.5
		h18l2.2-1.4l1.1-1.8v-2L34,24.5L32.7,23L32,21.7l-0.8-2.1l-1-2l-1.4-1.5c0,0-2.9-1.2-3-1c-0.1,0.1-2.7,0.2-2.7,0.2l-2.6,0.6
		l-1.6,1.6L17,19.3z"/>
	<path class="st0" d="M45.8,23.6v2l-1.1,1.8l-2.3,1.4h-7.2c0.1-0.3,0.2-0.6,0.2-0.9c0.5-3.3-2.9-5.9-2.9-5.9c-0.3-3.3-2.2-5.1-3.9-6
		c-0.1-0.1-0.3-0.1-0.4-0.2l1.6-1.4l1.6-1.6l2.6-0.6c0,0,2.6,0,2.7-0.2c0.1-0.1,3,1,3,1l1.4,1.5l1,2l0.7,2.1l0.7,1.3l1.3,1.5
		L45.8,23.6z"/>
	<g>
		<g>
			<path class="st1" d="M44.1,19.1C44.1,19.1,44,19,44.1,19.1c-0.4-2.3-1.5-4.3-3.1-5.7s-3.7-2.2-6-2.2c-0.9,0-1.8,0.1-2.7,0.4
				c-1.9,0.6-3.5,1.7-4.7,3.4c-0.4-0.2-0.9-0.3-1.3-0.4v0.5c0,0,0.9,0.2,2.1,0.8c0.1,0.1,0.3,0.1,0.4,0.2c1-1.5,2.4-2.5,4-3
				c0.7-0.2,1.5-0.3,2.2-0.3c3.8,0,7,2.8,7.5,6.5c0.1,0.5,0.5,1,0.8,1.2c1.4,0.9,2.2,2.6,1.9,4.1c-0.3,1.7-1.5,3-3.2,3.3
				c-0.3,0-0.6,0.1-1,0.1h-5.5c0,0.3-0.1,0.6-0.2,0.9c-0.1,0.2-0.2,0.5-0.3,0.7h6c0.5,0,0.9,0,1.3-0.1c2.3-0.5,4-2.2,4.5-4.6
				C47.1,22.7,46.1,20.4,44.1,19.1z"/>
		</g>
	</g>
	<g>
		<g>
			<path class="st1" d="M33.1,22.2C33.1,22.2,33,22.1,33.1,22.2c-0.4-2.3-1.5-4.3-3.1-5.7c-1.6-1.4-3.7-2.3-6-2.3
				c-0.9,0-1.8,0.1-2.7,0.4c-1.9,0.6-3.5,1.7-4.7,3.4c-0.9-0.3-1.8-0.5-2.8-0.5c-2.7,0-5.1,1.5-6.4,4c-2.8,0.8-4.5,3.4-4.1,6.2
				c0.4,2.9,2.7,4.9,5.8,4.9h0.6c0.3-0.6,0.6-1.1,1.1-1.6H9c-2.2,0-3.9-1.4-4.2-3.5c-0.3-2,1-3.9,3-4.5c0.4-0.1,0.8-0.4,1-0.8
				c1-2,2.9-3.1,5-3.1c0.8,0,1.6,0.2,2.4,0.5l0.7,0.3l0,0H17c0.2,0,0.3-0.1,0.4-0.2c0,0,0,0,0-0.1l0.1-0.2c1.1-1.7,2.5-2.8,4.2-3.3
				c0.7-0.2,1.5-0.3,2.2-0.3c3.8,0,7,2.8,7.5,6.5c0.1,0.5,0.5,1,0.8,1.2c1.4,0.9,2.2,2.6,1.9,4.1c-0.3,1.7-1.5,3-3.2,3.3
				c-0.3,0-0.6,0.1-1,0.1h-1.2c0.2,0.5,0.2,1.1,0.1,1.6H30c0.5,0,0.9,0,1.3-0.1c2.3-0.5,4-2.2,4.5-4.6
				C36.1,25.8,35.1,23.5,33.1,22.2z"/>
		</g>
	</g>
	<path class="st2" d="M29.3,14.6c0,0,4.7,2.1,5.1,6.9c0,0,3.5,2.4,2.3,7h-2.2l0.1-3.6l-2.2-2.2l-0.3-2.3l-3-3.6L28,16L29.3,14.6z"/>
	<path class="st2" d="M8.5,28.9c-1.6-0.7-2.8-1.7-3-3.1c0-0.1-0.1-0.1-0.1-0.1c-0.2,1-0.5,3.5,1.8,4.7h3.2C9.8,30,9.2,29.5,8.5,28.9
		z"/>
</g>
<path class="st3" d="M28.3,32c0,0.4-0.4,0.8-0.8,0.8h-2.9l2.1,2.1c0.3,0.3,0.3,0.8,0,1.1s-0.8,0.3-1.1,0l-2.1-2.1v2.9
	c0,0.4-0.4,0.8-0.8,0.8s-0.8-0.4-0.8-0.8v-2.9L19.8,36c-0.3,0.3-0.8,0.3-1.1,0c-0.3-0.3-0.3-0.8,0-1.1l2.1-2.1h-2.9
	c-0.4,0-0.8-0.4-0.8-0.8c0-0.4,0.4-0.8,0.8-0.8h2.9l-2.1-2.1c-0.3-0.3-0.3-0.8,0-1.1c0.2-0.2,0.4-0.2,0.6-0.2s0.4,0.1,0.6,0.2
	l2.1,2.1v-2.9c0-0.5,0.4-0.8,0.8-0.8s0.8,0.4,0.8,0.8V30l2.1-2.1c0.3-0.3,0.8-0.3,1.1,0c0.1,0.1,0.2,0.4,0.2,0.6s-0.1,0.4-0.2,0.6
	l-2.1,2.1h2.9C28,31.2,28.3,31.5,28.3,32z"/>
<path class="st4" d="M14,30c0.2,1.7,0,3.6,1,5.2c0.3,0.5,0.7,1,0.8,1.6c0.3,1-0.2,2.2-0.9,3c-0.4,0.5-1,0.9-1.6,1
	c-0.9,0.2-1.9-0.1-2.6-0.7c-0.4-0.4-0.6-0.9-0.7-1.4c-0.1-0.6,0-1.2,0.2-1.8c0.8-2.5,2.4-4.7,3.4-7.2c0-0.1,0.1-0.1,0.1-0.2
	c0.2-0.1,0.2,0.1,0.3,0.2C14,29.8,14,29.9,14,30z"/>
</svg>
