<?xml version="1.0" encoding="utf-8"?>
<!-- Generator: Adobe Illustrator 22.0.1, SVG Export Plug-In . SVG Version: 6.00 Build 0)  -->
<svg version="1.1" id="katman_1" xmlns="http://www.w3.org/2000/svg" xmlns:xlink="http://www.w3.org/1999/xlink" x="0px" y="0px"  height="50px" width="50px"
	 viewBox="0 0 50 50" style="enable-background:new 0 0 50 50;" xml:space="preserve">
<style type="text/css">
	.st0{fill:#FFFFFF;}
	.st1{fill:#505B78;}
	.st2{opacity:0.17;fill:#505B78;enable-background:new    ;}
	.st3{fill:#52C0D6;}
	.st4{fill:#66CD54;}
</style>
<g>
	<path class="st0" d="M22.5,17.8l-3.2-0.5l-3.1,0.9l-1.3,1.6L14,20.9l-1.6,0.6L11,22.9l-0.9,1.6l-0.4,1.7l0.9,2.3l1.3,1.2l2.4,0.9
		h4.5h18l2.2-1.4l1.1-1.8v-2L39.5,23l-1.3-1.5l-0.7-1.3l-0.8-2.1l-1-2l-1.4-1.5c0,0-2.9-1.2-3-1c-0.1,0.1-2.7,0.2-2.7,0.2L26,14.5
		l-1.6,1.6L22.5,17.8z"/>
	<g>
		<g>
			<g>
				<g>
					<path class="st1" d="M38.7,20.9C38.7,20.9,38.6,20.8,38.7,20.9c-0.4-2.3-1.5-4.3-3.1-5.7c-0.3-0.3-0.7-0.5-1-0.8
						c-0.2-0.1-0.3-0.2-0.5-0.3c-0.4-0.2-0.7-0.4-1.1-0.5l0,0c-1.1-0.4-2.2-0.7-3.4-0.7c-0.9,0-1.8,0.1-2.7,0.4
						c-1.9,0.6-3.5,1.8-4.8,3.4c-0.9-0.3-1.8-0.5-2.8-0.5c-2.7,0-5.1,1.5-6.5,4C10,21,8.2,23.7,8.6,26.5c0.4,3,2.7,4.9,5.8,4.9h2.4
						c-0.3-0.5-0.5-1-0.6-1.6h-1.8c-2.3,0-3.9-1.4-4.2-3.6c-0.3-2,1-3.9,3-4.5c0.4-0.1,0.8-0.4,1-0.8c1-2,2.9-3.2,5-3.2
						c0.8,0,1.6,0.2,2.4,0.5l0.7,0.3l0,0h0.1c0.2,0,0.3-0.1,0.4-0.2c0,0,0,0,0-0.1l0.1-0.2c1.1-1.7,2.5-2.8,4.3-3.3
						c0.7-0.2,1.5-0.4,2.3-0.4c3.8,0,7,2.8,7.5,6.5c0.1,0.5,0.5,1,0.8,1.2c1.4,0.9,2.2,2.6,1.9,4.2c-0.3,1.8-1.5,3-3.2,3.4
						c-0.2,0-0.5,0.1-0.9,0.1c-0.2,0.6-0.5,1.1-1,1.6h0.9c0.5,0,0.9,0,1.3-0.1c1.8-0.4,3.2-1.5,4-3c0.2-0.3,0.3-0.7,0.4-1.1
						c0-0.2,0.1-0.3,0.1-0.5C41.8,24.5,40.7,22.2,38.7,20.9z"/>
				</g>
			</g>
		</g>
	</g>
	<path class="st2" d="M10.7,24.6c0,0-0.8,5.6,5.6,4.7C16.3,29.3,12.6,28.8,10.7,24.6z"/>
	<path class="st3" d="M18.4,31.9L18.4,31.9L18.4,31.9z"/>
</g>
<path class="st4" d="M22.3,22c0.2,1.7,0,3.6,1,5.2c0.3,0.5,0.7,1,0.8,1.6c0.3,1-0.2,2.2-0.9,3c-0.4,0.5-1,0.9-1.6,1
	C20.7,33,19.7,32.7,19,32c-0.4-0.4-0.6-0.9-0.7-1.4c-0.1-0.6,0-1.2,0.2-1.8c0.8-2.5,2.4-4.7,3.4-7.2c0-0.1,0.1-0.1,0.1-0.2
	c0.2-0.1,0.2,0.1,0.3,0.2C22.3,21.8,22.3,21.9,22.3,22z"/>
<path class="st4" d="M32.3,20.3c0.2,1.7,0,3.6,1,5.2c0.3,0.5,0.7,1,0.8,1.6c0.3,1-0.2,2.2-0.9,3c-0.4,0.5-1,0.9-1.6,1
	c-0.9,0.2-1.9-0.1-2.6-0.7c-0.4-0.4-0.6-0.9-0.7-1.4c-0.1-0.6,0-1.2,0.2-1.8c0.8-2.5,2.4-4.7,3.4-7.2c0-0.1,0.1-0.1,0.1-0.2
	c0.2-0.1,0.2,0.1,0.3,0.2C32.2,20,32.3,20.1,32.3,20.3z"/>
<path class="st4" d="M27.4,31.3c0.2,1.7,0,3.6,1,5.2c0.3,0.5,0.7,1,0.8,1.6c0.3,1-0.2,2.2-0.9,3c-0.4,0.5-1,0.9-1.6,1
	c-0.9,0.2-1.9-0.1-2.6-0.7c-0.4-0.4-0.6-0.9-0.7-1.4c-0.1-0.6,0-1.2,0.2-1.8c0.8-2.5,2.4-4.7,3.4-7.2c0-0.1,0.1-0.1,0.1-0.2
	c0.2-0.1,0.2,0.1,0.3,0.2C27.4,31.1,27.4,31.2,27.4,31.3z"/>
<path class="st4" d="M18.7,33.4c0.2,1.7,0,3.6,1,5.2c0.3,0.5,0.7,1,0.8,1.6c0.3,1-0.2,2.2-0.9,3c-0.4,0.5-1,0.9-1.6,1
	C17,44.3,16,44,15.4,43.4C15,43,14.7,42.5,14.6,42c-0.1-0.6,0-1.2,0.2-1.8c0.8-2.5,2.4-4.7,3.4-7.2c0-0.1,0.1-0.1,0.1-0.2
	c0.2-0.1,0.2,0.1,0.3,0.2C18.6,33.2,18.7,33.3,18.7,33.4z"/>
<path class="st4" d="M36.9,33.2c0.2,1.7,0,3.6,1,5.2c0.3,0.5,0.7,1,0.8,1.6c0.3,1-0.2,2.2-0.9,3c-0.4,0.5-1,0.9-1.6,1
	c-0.9,0.2-1.9-0.1-2.6-0.7c-0.4-0.4-0.6-0.9-0.7-1.4c-0.1-0.6,0-1.2,0.2-1.8c0.8-2.5,2.4-4.7,3.4-7.2c0-0.1,0.1-0.1,0.1-0.2
	c0.2-0.1,0.2,0.1,0.3,0.2C36.8,33,36.8,33.1,36.9,33.2z"/>
</svg>
