<?xml version="1.0" encoding="utf-8"?>
<!-- Generator: Adobe Illustrator 22.0.1, SVG Export Plug-In . SVG Version: 6.00 Build 0)  -->
<svg version="1.1" id="katman_1" xmlns="http://www.w3.org/2000/svg" xmlns:xlink="http://www.w3.org/1999/xlink" x="0px" y="0px"  height="50px" width="50px"
	 viewBox="0 0 50 50" style="enable-background:new 0 0 50 50;" xml:space="preserve">
<style type="text/css">
	.st0{fill:#FFFFFF;}
	.st1{fill:#505B78;}
	.st2{opacity:0.17;fill:#505B78;enable-background:new    ;}
	.st3{fill:#66CD54;}
</style>
<g>
	<path class="st0" d="M22.1,18.1l-3.3-0.5l-3.1,0.9l-1.3,1.6l-0.9,1.2l-1.6,0.6l-1.4,1.4l-0.9,1.6l-0.4,1.7l0.9,2.3l1.3,1.2l2.5,0.9
		h4.6h18.4l2.3-1.4l1.1-1.9v-2.1l-0.8-2.2l-1.4-1.5l-0.7-1.3l-0.8-2.1l-1.1-2L34.1,15c0,0-2.9-1.2-3.1-1h-2.7l-2.6,0.6l-1.6,1.7
		L22.1,18.1z"/>
	<g>
		<g>
			<g>
				<path class="st1" d="M38.7,21.3C38.7,21.3,38.7,21.2,38.7,21.3c-0.4-2.3-1.5-4.3-3.1-5.7s-3.8-2.3-6.1-2.3
					c-0.9,0-1.9,0.1-2.7,0.4c-1.9,0.6-3.5,1.8-4.8,3.4c-0.9-0.4-1.8-0.5-2.8-0.5c-2.7,0-5.1,1.5-6.5,4c-2.8,0.8-4.6,3.4-4.2,6.3
					c0.4,3,2.7,4.9,5.8,4.9H23h10.8c0.1-0.2,0.2-0.5,0.3-0.7c0.1-0.3,0.3-0.6,0.4-0.9H14.4c-2.3,0-3.9-1.4-4.2-3.6
					c-0.3-2,1-3.9,3-4.5c0.4-0.1,0.9-0.4,1-0.8c1.1-2,2.9-3.1,5-3.1c0.8,0,1.6,0.2,2.4,0.5l0.7,0.3l0,0h0.1c0.1,0,0.3-0.1,0.4-0.2
					c0,0,0,0,0-0.1l0.1-0.2c1.1-1.7,2.5-2.8,4.3-3.3c0.7-0.2,1.5-0.4,2.3-0.4c3.8,0,7,2.8,7.5,6.5c0.1,0.5,0.5,1,0.8,1.2
					c1.4,0.9,2.2,2.6,1.9,4.2c0,0.2-0.1,0.4-0.2,0.6c0.2,0.3,0.4,0.6,0.5,0.9c0.2,0.3,0.3,0.5,0.5,0.8c0.3-0.6,0.6-1.2,0.7-2
					C41.8,24.9,40.7,22.5,38.7,21.3z"/>
			</g>
		</g>
		<path class="st2" d="M30.8,29.5c-7.3-0.2-20-1.2-19.5-5.1c0,0-2.2,3.7,3.2,5.2L30.8,29.5C30.8,29.6,30.8,29.6,30.8,29.5z"/>
	</g>
</g>
<path class="st3" d="M38.2,27.8c0.2,1.7,0,3.6,1,5.2c0.3,0.5,0.7,1,0.8,1.6c0.3,1-0.2,2.2-0.9,3c-0.4,0.5-1,0.9-1.6,1
	c-0.9,0.2-1.9-0.1-2.6-0.7c-0.4-0.4-0.6-0.9-0.7-1.4c-0.1-0.6,0-1.2,0.2-1.8c0.8-2.5,2.4-4.7,3.4-7.2c0-0.1,0.1-0.1,0.1-0.2
	c0.2-0.1,0.2,0.1,0.3,0.2C38.2,27.6,38.2,27.7,38.2,27.8z"/>
</svg>
