<?xml version="1.0" encoding="utf-8"?>
<!-- Generator: Adobe Illustrator 16.0.0, SVG Export Plug-In . SVG Version: 6.00 Build 0)  -->
<!DOCTYPE svg PUBLIC "-//W3C//DTD SVG 1.1//EN" "http://www.w3.org/Graphics/SVG/1.1/DTD/svg11.dtd">
<svg version="1.1" id="katman_1" xmlns="http://www.w3.org/2000/svg" xmlns:xlink="http://www.w3.org/1999/xlink" x="0px" y="0px"
	 width="50px" height="50px" viewBox="0 0 50 50" enable-background="new 0 0 50 50" xml:space="preserve">
<path fill="#FCCD63" d="M23.73,31.8c-0.45-1.12-1.15-2.1-2.03-2.858c-1.22-1.051-2.78-1.682-4.46-1.682c-0.71,0-1.41,0.12-2.09,0.34
	c-1.19,0.393-2.22,1.07-3.061,2.03c-0.46-1.12-0.71-2.36-0.71-3.659c0-5.351,4.341-9.701,9.7-9.701c4.58,0,8.43,3.18,9.438,7.45
	c-1.529,0.34-2.858,1.34-3.75,2.83C24.7,27.359,23.431,29.5,23.73,31.8z"/>
<path fill="#FCCD63" d="M22.369,13.221c0,0.712-0.578,1.288-1.288,1.288l0,0c-0.712,0-1.288-0.576-1.288-1.288V9.825
	c0-0.712,0.576-1.288,1.288-1.288l0,0c0.71,0,1.288,0.576,1.288,1.288V13.221z"/>
<path fill="#FCCD63" d="M31.426,18.337c-0.503,0.504-1.318,0.504-1.822,0l0,0c-0.504-0.503-0.504-1.317,0-1.821l2.401-2.402
	c0.505-0.504,1.315-0.504,1.821,0l0,0c0.503,0.503,0.506,1.316,0,1.823L31.426,18.337z"/>
<path fill="#FCCD63" d="M4.729,27.262c-0.713,0-1.289-0.576-1.289-1.287l0,0c0-0.71,0.576-1.288,1.289-1.288h3.396
	c0.712,0,1.288,0.575,1.288,1.288l0,0c0,0.711-0.576,1.287-1.288,1.287H4.729z"/>
<path fill="#FCCD63" d="M8.911,15.131c-0.505-0.508-0.505-1.321,0-1.824l0,0c0.505-0.506,1.317-0.506,1.82,0l2.402,2.4
	c0.504,0.505,0.505,1.319,0,1.822l0,0c-0.502,0.505-1.317,0.505-1.82,0L8.911,15.131z"/>
<g>
	<path fill="#FFFFFF" d="M12.917,31.571l-1.902-0.322l-1.832,0.544l-0.761,0.939l-0.547,0.688l-0.95,0.376l-0.832,0.789
		l-0.525,0.943l-0.223,0.985l0.55,1.36l0.775,0.692l1.445,0.521h2.686h10.728l1.333-0.843l0.643-1.088v-1.211l-0.467-1.31
		l-0.793-0.896l-0.429-0.768l-0.454-1.238l-0.618-1.161l-0.81-0.902c0,0-1.711-0.688-1.783-0.598
		c-0.071,0.092-1.617,0.117-1.617,0.117l-1.522,0.368l-0.95,0.967L12.917,31.571z"/>
	<g>
		<g>
			<g>
				<path fill="#505B79" d="M23.258,33.573c-0.011-0.013-0.022-0.021-0.034-0.032c-0.151-0.142-0.352-0.32-0.383-0.347
					c-0.001,0-0.003-0.002-0.003-0.002c-0.547-2.758-3.007-4.796-5.869-4.796c-0.603,0-1.202,0.091-1.777,0.273
					c-1.067,0.333-1.979,0.926-2.72,1.771c-0.422-0.111-0.852-0.167-1.283-0.167c-1.705,0-3.251,0.892-4.191,2.403
					c-1.779,0.658-2.861,2.418-2.601,4.308c0.281,2.047,1.954,3.479,4.07,3.48l4.904,0.001l7.01-0.001
					c0.344,0,0.615-0.023,0.884-0.079c1.646-0.335,2.859-1.584,3.168-3.261C24.66,35.875,24.19,34.515,23.258,33.573z M22.85,36.837
					c-0.186,1.015-0.917,1.771-1.905,1.973c-0.158,0.03-0.332,0.046-0.565,0.046l-7.009,0.002l-4.903-0.002
					c-1.332,0-2.303-0.821-2.477-2.092c-0.165-1.195,0.579-2.309,1.765-2.645l0.076-0.02l-0.001-0.002
					c0.203-0.058,0.31-0.191,0.335-0.224c0.004-0.006,0.005-0.007,0.005-0.007l0.072-0.134c0.643-1.178,1.717-1.852,2.947-1.852
					c0.427,0,0.856,0.083,1.27,0.244l0.268,0.104c0,0,0.004,0.002,0.014,0.005c0.059,0.02,0.305,0.081,0.463-0.114
					c0.005-0.005,0.01-0.012,0.016-0.019l0.181-0.248c0.593-0.805,1.357-1.36,2.272-1.647c0.421-0.134,0.859-0.2,1.297-0.2
					c1.979,0,3.695,1.328,4.214,3.175c0,0,0.001,0.008,0.005,0.02c0.002,0.009,0.007,0.021,0.011,0.033
					c0.003,0.021,0.012,0.049,0.019,0.079c0.002,0.01,0.004,0.021,0.008,0.032c0.008,0.033,0.017,0.073,0.027,0.112l0.008,0.045
					c0.031,0.135,0.065,0.302,0.093,0.473c0,0.006,0.002,0.011,0.002,0.016c0,0,0,0.004,0.001,0.009
					c0.008,0.04,0.055,0.207,0.283,0.335l-0.001,0.002c0.074,0.039,0.144,0.084,0.21,0.133h0.004
					c0.013,0.009,0.023,0.019,0.035,0.028c0.062,0.047,0.118,0.098,0.174,0.151c0.012,0.012,0.024,0.023,0.037,0.036
					c0.062,0.064,0.121,0.128,0.17,0.188c0.016,0.016,0.027,0.029,0.035,0.046c0.094,0.114,0.156,0.209,0.183,0.253
					c0.003,0.008,0.008,0.016,0.014,0.022v0.002c0.001,0,0.001,0,0.001,0C22.809,35.703,22.947,36.295,22.85,36.837z"/>
			</g>
		</g>
	</g>
	<path opacity="0.17" fill="#505B79" enable-background="new    " d="M16.797,38.466c-3.763-0.135-10.293-0.705-10.016-3.04
		c0,0-1.142,2.176,1.623,3.077h8.399C16.803,38.49,16.801,38.479,16.797,38.466z"/>
</g>
<g>
	<path fill="#FFFFFF" d="M33.173,26.357l-1.816-0.307l-1.748,0.521l-0.727,0.895l-0.522,0.658l-0.909,0.357l-0.795,0.756l-0.5,0.898
		l-0.213,0.943l0.525,1.299l0.74,0.664l1.38,0.494h2.565h10.241l1.271-0.805l0.613-1.039v-1.158l-0.445-1.25l-0.758-0.854
		l-0.408-0.734l-0.434-1.178l-0.59-1.111l-0.773-0.86c0,0-1.632-0.659-1.702-0.573c-0.068,0.087-1.546,0.11-1.546,0.11l-1.451,0.354
		l-0.907,0.92L33.173,26.357z"/>
	<g>
		<g>
			<g>
				<path fill="#505B79" d="M43.049,28.273c-0.01-0.018-0.027-0.025-0.036-0.033c-0.138-0.133-0.331-0.309-0.367-0.334
					c-0.263-1.313-0.979-2.469-1.977-3.281c-0.989-0.814-2.266-1.304-3.631-1.304c-0.576,0-1.146,0.097-1.695,0.263
					c-1.015,0.323-1.89,0.893-2.599,1.697c-0.403-0.114-0.815-0.166-1.225-0.166c-0.455,0-0.899,0.07-1.321,0.201
					c-1.085,0.323-2.029,1.057-2.678,2.1c-1.696,0.629-2.729,2.311-2.485,4.111c0.131,0.893,0.525,1.662,1.12,2.24
					c0.699,0.682,1.671,1.084,2.765,1.084h11.381c0.324,0,0.587-0.025,0.84-0.078c1.575-0.314,2.73-1.514,3.027-3.115
					C44.387,30.469,43.94,29.166,43.049,28.273z M40.301,33.313H28.928c-0.594,0-1.11-0.166-1.514-0.48
					c-0.461-0.344-0.769-0.865-0.855-1.514c-0.157-1.146,0.551-2.205,1.688-2.529l0.07-0.018c0.193-0.055,0.298-0.184,0.315-0.219
					c0.009,0,0.009-0.01,0.009-0.01l0.069-0.121c0.384-0.701,0.918-1.207,1.557-1.494v-0.01c0.383-0.166,0.805-0.264,1.251-0.264
					c0.411,0,0.823,0.078,1.216,0.236l0.255,0.096c0,0,0.009,0,0.019,0c0.053,0.025,0.289,0.08,0.438-0.105
					c0.009-0.008,0.009-0.008,0.019-0.018l0.174-0.236c0.562-0.771,1.294-1.304,2.169-1.575c0.401-0.122,0.814-0.192,1.232-0.192
					c1.89,0,3.535,1.268,4.026,3.035c0,0,0,0.01,0.008,0.018c0,0.012,0,0.02,0.01,0.037c0,0.018,0.011,0.045,0.018,0.07
					c0,0.008,0.009,0.023,0.009,0.033c0.01,0.025,0.019,0.07,0.026,0.105l0.009,0.043c0.026,0.131,0.062,0.289,0.089,0.457
					c0,0,0,0,0,0.01c0,0,0,0,0,0.008c0.009,0.035,0.053,0.201,0.271,0.324c0.07,0.035,0.141,0.08,0.2,0.123
					c0.019,0.01,0.026,0.018,0.036,0.035c0.061,0.045,0.112,0.088,0.165,0.141c0.009,0.018,0.026,0.025,0.035,0.033
					c0.061,0.061,0.114,0.123,0.165,0.186c0.011,0.008,0.019,0.025,0.036,0.033c0.088,0.115,0.148,0.201,0.165,0.244
					c0.009,0.01,0.009,0.018,0.018,0.027c0.236,0.377,0.369,0.805,0.369,1.223c0,0.115-0.019,0.229-0.036,0.342
					c-0.174,0.971-0.875,1.689-1.819,1.881C40.686,33.305,40.52,33.313,40.301,33.313z"/>
			</g>
		</g>
	</g>
	<path opacity="0.17" fill="#505B79" enable-background="new    " d="M36.877,32.941c-3.594-0.127-9.828-0.674-9.563-2.902
		c0,0-1.091,2.078,1.548,2.939h8.021C36.881,32.967,36.88,32.955,36.877,32.941z"/>
</g>
</svg>
