<?xml version="1.0" encoding="utf-8"?>
<!-- Generator: Adobe Illustrator 16.0.0, SVG Export Plug-In . SVG Version: 6.00 Build 0)  -->
<!DOCTYPE svg PUBLIC "-//W3C//DTD SVG 1.1//EN" "http://www.w3.org/Graphics/SVG/1.1/DTD/svg11.dtd">
<svg version="1.1" id="katman_1" xmlns="http://www.w3.org/2000/svg" xmlns:xlink="http://www.w3.org/1999/xlink" x="0px" y="0px"
	 width="50px" height="50px" viewBox="0 0 50 50" enable-background="new 0 0 50 50" xml:space="preserve">
<g>
	<g>
		<g>
			<path fill="#505B79" d="M29.734,14.667c0,0.455-0.369,0.823-0.825,0.823c-0.017,0-0.036,0-0.053-0.002
				c-0.55,0-0.8,0.275-1.286,0.86c-0.522,0.623-1.219,1.457-2.563,1.457c-1.349,0-2.044-0.834-2.557-1.445
				c-0.497-0.597-0.746-0.872-1.307-0.872c-0.549,0-0.796,0.275-1.282,0.86c-0.523,0.623-1.221,1.457-2.568,1.457
				c-1.344,0-2.042-0.834-2.553-1.445c-0.486-0.597-0.747-0.872-1.297-0.872c-0.56,0-0.809,0.275-1.295,0.86
				c-0.51,0.623-1.221,1.457-2.566,1.457c-1.335,0-2.043-0.834-2.555-1.445c-0.137-0.16-0.25-0.298-0.36-0.421
				c-0.138-0.14-0.236-0.351-0.236-0.574c0-0.449,0.372-0.823,0.821-0.823c0.226,0,0.437,0.088,0.586,0.25
				c0.162,0.15,0.299,0.312,0.424,0.473c0.522,0.61,0.771,0.884,1.32,0.884c0.561,0,0.811-0.273,1.297-0.846
				c0.509-0.625,1.221-1.459,2.564-1.459c1.346,0,2.044,0.834,2.556,1.446c0.486,0.585,0.746,0.858,1.294,0.858
				c0.551,0,0.811-0.273,1.295-0.846c0.514-0.625,1.209-1.459,2.568-1.459c1.346,0,2.042,0.834,2.553,1.446
				c0.487,0.585,0.749,0.858,1.298,0.858c0.546,0,0.808-0.273,1.294-0.846c0.511-0.625,1.21-1.459,2.568-1.459h0.04
				C29.365,13.844,29.734,14.212,29.734,14.667z"/>
			<path fill="#505B79" d="M43.569,15.365c0,0.149-0.036,0.3-0.114,0.424l-0.159,0.198c-0.389,0.449-0.747,0.859-0.81,0.935
				c-0.41,0.399-1.034,0.884-2.056,0.884c-1.332,0-2.044-0.834-2.554-1.445c-0.473-0.571-0.746-0.872-1.294-0.872
				c-0.166,0-0.307,0.026-0.436,0.077c-0.012,0.006-0.024,0.011-0.037,0.017c-0.093,0.036-0.194,0.055-0.297,0.055
				c-0.306,0-0.571-0.164-0.714-0.408c-0.072-0.12-0.111-0.263-0.111-0.413c0-0.151,0.042-0.294,0.111-0.414
				c0.084-0.143,0.208-0.257,0.355-0.327c0.023-0.013,0.045-0.021,0.068-0.028c0.302-0.127,0.649-0.202,1.06-0.202
				c1.344,0,2.04,0.834,2.552,1.446c0.486,0.585,0.75,0.858,1.296,0.858c0.242,0,0.435-0.048,0.623-0.162c0,0,0,0,0.001-0.003
				c0.003-0.002,0.01-0.005,0.013-0.007c0.003-0.001,0.008-0.003,0.011-0.008c0.01-0.005,0.016-0.011,0.023-0.016
				c0.015-0.009,0.034-0.023,0.058-0.044c0.012-0.005,0.02-0.013,0.03-0.021v-0.003c0.07-0.062,0.172-0.158,0.299-0.309
				c0.08-0.089,0.161-0.182,0.236-0.273l0.364-0.449c0.099-0.124,0.185-0.188,0.299-0.247c0.099-0.052,0.224-0.075,0.36-0.075
				C43.195,14.531,43.569,14.903,43.569,15.365z"/>
		</g>
	</g>
	<g>
		<g>
			<path fill="#505B79" d="M29.734,20.771c0,0.453-0.369,0.821-0.825,0.821c-0.017,0-0.036,0-0.053-0.002
				c-0.55,0-0.8,0.275-1.286,0.862c-0.522,0.621-1.219,1.457-2.563,1.457c-1.349,0-2.044-0.836-2.557-1.446
				c-0.497-0.598-0.746-0.873-1.307-0.873c-0.549,0-0.796,0.275-1.282,0.862c-0.523,0.621-1.221,1.457-2.568,1.457
				c-1.344,0-2.042-0.836-2.553-1.446c-0.486-0.598-0.747-0.873-1.297-0.873c-0.56,0-0.809,0.275-1.295,0.862
				c-0.51,0.621-1.221,1.457-2.566,1.457c-1.335,0-2.043-0.836-2.555-1.446c-0.137-0.161-0.25-0.297-0.36-0.422
				c-0.138-0.14-0.236-0.35-0.236-0.573c0-0.449,0.372-0.824,0.821-0.824c0.226,0,0.437,0.089,0.586,0.25
				c0.162,0.15,0.299,0.313,0.424,0.473c0.522,0.611,0.771,0.886,1.32,0.886c0.561,0,0.811-0.274,1.297-0.849
				c0.509-0.622,1.221-1.458,2.564-1.458c1.346,0,2.044,0.836,2.556,1.446c0.486,0.586,0.746,0.86,1.294,0.86
				c0.551,0,0.811-0.274,1.295-0.849c0.514-0.622,1.209-1.458,2.568-1.458c1.346,0,2.042,0.836,2.553,1.446
				c0.487,0.586,0.749,0.86,1.298,0.86c0.546,0,0.808-0.274,1.294-0.849c0.511-0.622,1.21-1.458,2.568-1.458h0.04
				C29.365,19.946,29.734,20.314,29.734,20.771z"/>
			<path fill="#505B79" d="M43.569,21.469c0,0.148-0.036,0.299-0.114,0.423l-0.159,0.198c-0.389,0.449-0.747,0.86-0.81,0.935
				c-0.41,0.4-1.034,0.886-2.056,0.886c-1.332,0-2.044-0.836-2.554-1.446c-0.473-0.572-0.746-0.873-1.294-0.873
				c-0.166,0-0.307,0.026-0.436,0.078c-0.012,0.005-0.024,0.011-0.037,0.016c-0.093,0.036-0.194,0.057-0.297,0.057
				c-0.306,0-0.571-0.164-0.714-0.41c-0.072-0.12-0.111-0.263-0.111-0.413s0.042-0.292,0.111-0.414
				c0.084-0.143,0.208-0.256,0.355-0.326c0.023-0.013,0.045-0.021,0.068-0.029c0.302-0.125,0.649-0.202,1.06-0.202
				c1.344,0,2.04,0.836,2.552,1.446c0.486,0.586,0.75,0.86,1.296,0.86c0.242,0,0.435-0.049,0.623-0.164c0,0,0,0,0.001-0.002
				c0.003-0.002,0.01-0.006,0.013-0.008s0.008-0.003,0.011-0.006c0.01-0.007,0.016-0.012,0.023-0.018
				c0.015-0.008,0.034-0.023,0.058-0.042c0.012-0.007,0.02-0.013,0.03-0.022v-0.003c0.07-0.063,0.172-0.159,0.299-0.309
				c0.08-0.09,0.161-0.183,0.236-0.275l0.364-0.447c0.099-0.125,0.185-0.188,0.299-0.247c0.099-0.053,0.224-0.076,0.36-0.076
				C43.195,20.634,43.569,21.007,43.569,21.469z"/>
		</g>
	</g>
	<g>
		<g>
			<path fill="#505B79" d="M29.734,26.915c0,0.454-0.369,0.823-0.825,0.823c-0.017,0-0.036,0-0.053-0.003
				c-0.55,0-0.8,0.278-1.286,0.862c-0.522,0.623-1.219,1.457-2.563,1.457c-1.349,0-2.044-0.834-2.557-1.445
				c-0.497-0.596-0.746-0.874-1.307-0.874c-0.549,0-0.796,0.278-1.282,0.862c-0.523,0.623-1.221,1.457-2.568,1.457
				c-1.344,0-2.042-0.834-2.553-1.445c-0.486-0.596-0.747-0.874-1.297-0.874c-0.56,0-0.809,0.278-1.295,0.862
				c-0.51,0.623-1.221,1.457-2.566,1.457c-1.335,0-2.043-0.834-2.555-1.445c-0.137-0.162-0.25-0.297-0.36-0.422
				c-0.138-0.139-0.236-0.351-0.236-0.574c0-0.449,0.372-0.823,0.821-0.823c0.226,0,0.437,0.088,0.586,0.251
				C8,27.189,8.137,27.352,8.262,27.513c0.522,0.61,0.771,0.886,1.32,0.886c0.561,0,0.811-0.275,1.297-0.848
				c0.509-0.624,1.221-1.458,2.564-1.458c1.346,0,2.044,0.834,2.556,1.445c0.486,0.585,0.746,0.86,1.294,0.86
				c0.551,0,0.811-0.275,1.295-0.848c0.514-0.624,1.209-1.458,2.568-1.458c1.346,0,2.042,0.834,2.553,1.445
				c0.487,0.585,0.749,0.86,1.298,0.86c0.546,0,0.808-0.275,1.294-0.848c0.511-0.624,1.21-1.458,2.568-1.458h0.04
				C29.365,26.093,29.734,26.46,29.734,26.915z"/>
			<path fill="#505B79" d="M43.569,27.613c0,0.15-0.036,0.299-0.114,0.424l-0.159,0.199c-0.389,0.447-0.747,0.859-0.81,0.934
				c-0.41,0.4-1.034,0.885-2.056,0.885c-1.332,0-2.044-0.834-2.554-1.445c-0.473-0.572-0.746-0.874-1.294-0.874
				c-0.166,0-0.307,0.028-0.436,0.078c-0.012,0.005-0.024,0.011-0.037,0.016c-0.093,0.036-0.194,0.057-0.297,0.057
				c-0.306,0-0.571-0.164-0.714-0.408c-0.072-0.122-0.111-0.265-0.111-0.413c0-0.152,0.042-0.295,0.111-0.415
				c0.084-0.143,0.208-0.257,0.355-0.327c0.023-0.013,0.045-0.021,0.068-0.028c0.302-0.126,0.649-0.201,1.06-0.201
				c1.344,0,2.04,0.834,2.552,1.445c0.486,0.585,0.75,0.86,1.296,0.86c0.242,0,0.435-0.049,0.623-0.164c0,0,0,0,0.001-0.002
				c0.003-0.002,0.01-0.006,0.013-0.006c0.003-0.004,0.008-0.006,0.011-0.01c0.01-0.004,0.016-0.01,0.023-0.016
				c0.015-0.008,0.034-0.023,0.058-0.043c0.012-0.004,0.02-0.012,0.03-0.021v-0.004c0.07-0.061,0.172-0.158,0.299-0.309
				c0.08-0.091,0.161-0.182,0.236-0.273l0.364-0.449c0.099-0.125,0.185-0.188,0.299-0.247c0.099-0.052,0.224-0.075,0.36-0.075
				C43.195,26.779,43.569,27.151,43.569,27.613z"/>
		</g>
	</g>
	<g>
		<g>
			<path fill="#505B79" d="M29.734,33.02c0,0.455-0.369,0.822-0.825,0.822c-0.017,0-0.036,0-0.053-0.002
				c-0.55,0-0.8,0.275-1.286,0.861c-0.522,0.621-1.219,1.455-2.563,1.455c-1.349,0-2.044-0.834-2.557-1.443
				c-0.497-0.598-0.746-0.873-1.307-0.873c-0.549,0-0.796,0.275-1.282,0.861c-0.523,0.621-1.221,1.455-2.568,1.455
				c-1.344,0-2.042-0.834-2.553-1.443c-0.486-0.598-0.747-0.873-1.297-0.873c-0.56,0-0.809,0.275-1.295,0.861
				c-0.51,0.621-1.221,1.455-2.566,1.455c-1.335,0-2.043-0.834-2.555-1.443c-0.137-0.16-0.25-0.299-0.36-0.422
				c-0.138-0.141-0.236-0.35-0.236-0.574c0-0.447,0.372-0.824,0.821-0.824c0.226,0,0.437,0.09,0.586,0.25
				c0.162,0.15,0.299,0.313,0.424,0.473c0.522,0.613,0.771,0.887,1.32,0.887c0.561,0,0.811-0.273,1.297-0.848
				c0.509-0.623,1.221-1.459,2.564-1.459c1.346,0,2.044,0.836,2.556,1.445c0.486,0.588,0.746,0.861,1.294,0.861
				c0.551,0,0.811-0.273,1.295-0.848c0.514-0.623,1.209-1.459,2.568-1.459c1.346,0,2.042,0.836,2.553,1.445
				c0.487,0.588,0.749,0.861,1.298,0.861c0.546,0,0.808-0.273,1.294-0.848c0.511-0.623,1.21-1.459,2.568-1.459h0.04
				C29.365,32.195,29.734,32.563,29.734,33.02z"/>
			<path fill="#505B79" d="M43.569,33.717c0,0.15-0.036,0.301-0.114,0.424l-0.159,0.199c-0.389,0.447-0.747,0.857-0.81,0.934
				c-0.41,0.4-1.034,0.883-2.056,0.883c-1.332,0-2.044-0.834-2.554-1.443c-0.473-0.572-0.746-0.873-1.294-0.873
				c-0.166,0-0.307,0.027-0.436,0.076c-0.012,0.006-0.024,0.012-0.037,0.018c-0.093,0.035-0.194,0.057-0.297,0.057
				c-0.306,0-0.571-0.164-0.714-0.41c-0.072-0.121-0.111-0.264-0.111-0.414s0.042-0.293,0.111-0.414
				c0.084-0.143,0.208-0.256,0.355-0.324c0.023-0.014,0.045-0.023,0.068-0.031c0.302-0.127,0.649-0.201,1.06-0.201
				c1.344,0,2.04,0.836,2.552,1.445c0.486,0.588,0.75,0.861,1.296,0.861c0.242,0,0.435-0.049,0.623-0.164c0,0,0,0,0.001-0.002
				c0.003-0.002,0.01-0.006,0.013-0.008s0.008-0.004,0.011-0.006c0.01-0.006,0.016-0.012,0.023-0.018
				c0.015-0.01,0.034-0.023,0.058-0.045c0.012-0.004,0.02-0.012,0.03-0.02v-0.004c0.07-0.063,0.172-0.158,0.299-0.309
				c0.08-0.09,0.161-0.182,0.236-0.273l0.364-0.449c0.099-0.125,0.185-0.188,0.299-0.248c0.099-0.051,0.224-0.074,0.36-0.074
				C43.195,32.883,43.569,33.256,43.569,33.717z"/>
		</g>
	</g>
</g>
</svg>
