<?xml version="1.0" encoding="utf-8"?>
<!-- Generator: Adobe Illustrator 21.1.0, SVG Export Plug-In . SVG Version: 6.00 Build 0)  -->
<svg version="1.1" id="katman_1" xmlns="http://www.w3.org/2000/svg" xmlns:xlink="http://www.w3.org/1999/xlink" x="0px" y="0px"
	 width="50px" height="50px" viewBox="0 0 50 50" style="enable-background:new 0 0 50 50;" xml:space="preserve">
<style type="text/css">
	.st0{fill:#1A1A26;}
	.st1{fill:#FFFFFF;}
	.st2{fill:#E52921;}
	.st3{fill:#EDC4D6;}
</style>
<path d="M12.6,11.4v0.1c-0.2,0-0.3-0.1-0.5-0.1c-0.2,0-0.3,0-0.5,0.1v-0.1H12.6z"/>
<path class="st0" d="M12.6,11.5v27.1h-1V11.5c0.2,0,0.3-0.1,0.5-0.1C12.2,11.4,12.4,11.4,12.6,11.5z"/>
<g>
	<g>
		<path class="st1" d="M25,13.7L24.6,18l0,0l-0.1,1.5L24,19.4c0.1-0.2,0.1-0.5,0.1-0.7c0-0.2,0-0.4,0-0.5c0-0.2,0-0.5,0.1-0.7
			c0-0.3,0-0.5,0-0.8l-0.1,0l-0.8-0.2c-0.1,0-0.1,0-0.1,0c0,0,0-0.1,0-0.3c0-0.1-0.1-0.1-0.2-0.1c-0.1,0-0.3,0-0.4,0
			c-0.1,0-0.3,0.1-0.3,0.1c-0.3-0.3-0.6-0.2-0.9-0.3c-0.5-0.1-1,0.3-1.6,0.4c-0.2,0-0.4,0.1-0.5-0.2c0,0,0,0,0,0c0,0.1,0,0.2,0,0.3
			c0,0.1,0,0.2,0,0.3c0,0.3,0,0.5,0,0.8c0,0,0,0.1,0,0.1c0,0.1,0,0.1,0,0.2c0,0.1,0,0.1,0,0.2c0,0,0,0.1,0,0.1c0,0.1,0,0.2,0,0.3h0
			l-0.7-0.2l0.5-3.8v0l0-0.2l0.3-2c0,0,0,0,0.1,0c0,0,0,0,0,0c0.6,0.2,3.4,0.9,5,1.4c0.1,0,0.1,0,0.2,0.1
			C24.9,13.7,24.9,13.7,25,13.7C24.9,13.7,24.9,13.7,25,13.7z"/>
		<path class="st1" d="M28.9,15.1c0,0,4.9,1.8,5.9,2.2l-0.4,3.9L33,21.1L29.8,20l-2.5-1l0.2-2.4L28.9,15.1z"/>
		<path class="st2" d="M19.6,12.7c0.1-0.3,0.1-0.4,0-0.5c0,0,0,0,0,0c0,0,0,0,0,0c0,0-0.1,0-0.1,0c0,0,0,0,0,0c0,0-0.1,0-0.1,0
			c-0.5-0.1-1.1-0.1-1.6-0.2c-1-0.1-2.1-0.3-3.1-0.4c0,0,0,0,0,0c0,0,0,0-0.1,0c0,0,0,0,0,0c0,0.2-0.2,0.2-0.2,0.1c0,0,0,0,0,0
			c0,0.1,0,0.1,0,0.2c0,0.4,0,0.7,0,1.1c0,0,0,0,0,0.1c0,0.1,0,0.1,0,0.2c0,1,0,2,0,3c0,0,0,0,0,0c0,0,0,0,0,0.1c0,0.4,0,0.9,0,1.3
			c0.1,0,0.1,0,0.1,0.1c0,0.1,0,0.2,0,0.4c0,0-0.1,0.1-0.1,0.1c-0.1,0.1-0.2,0.2-0.2,0.3c0,0,0,0,0,0c0.1,0.2,0.1,0.3,0.1,0.5
			c0,0.1,0.1,0.1,0.2,0.1c0,0,0,0,0,0c0,0,0.1,0,0.1,0c0.3,0,0.5,0,0.8,0.1c0.9,0.3,1.7,0.4,2.6,0.5c0.4,0,0.8-0.1,1.2,0.1
			c0.1-0.2,0.1-0.3,0.2-0.5c0,0,0-0.1,0-0.1c0,0,0,0,0-0.1c0,0,0,0,0-0.1c0-0.1,0-0.1,0-0.2c0,0,0-0.1,0-0.1c0,0,0-0.1,0-0.1
			c0-0.1,0-0.2,0-0.2c0-0.1,0-0.2,0-0.3c0,0,0-0.1,0-0.1c0-0.1,0-0.1,0-0.2c0-0.1,0-0.1,0-0.2c0,0,0-0.1,0-0.1c0-0.3,0-0.5,0-0.8
			c0-0.1,0-0.2,0-0.3c0-0.1,0-0.2,0-0.3c0-0.3,0-0.5,0-0.8c0-0.3,0-0.6-0.1-0.8c0,0,0-0.1,0-0.1l0,0c0-0.1,0-0.1,0-0.2
			c0.1-0.1,0.3-0.1,0.2-0.4c0,0,0,0,0,0C19.5,13.4,19.6,13,19.6,12.7z"/>
		<path class="st2" d="M29.2,16.9c0,0.1,0,0.1,0,0.2v0.2c0,0.6-0.1,1.1-0.1,1.7c0,0.1,0,0.2,0,0.2c0,0.1,0,0.1,0,0.2
			c0,0,0,0.1,0,0.1l0,0.1c0,0,0,0,0,0.1c0,0,0,0,0,0.1c0,0,0,0.1,0,0.1c0,0,0,0.1,0,0.1c0,0,0,0.1,0,0.1c0,0,0,0.1,0,0.1
			c0,0,0,0,0,0c0,0,0,0.1,0,0.1c0,0,0,0,0,0.1c0,0,0,0.1,0,0.1c0,0,0,0,0,0.1c0,0,0,0,0,0c0,0,0,0,0,0.1c0,0,0,0.1,0,0.1
			c0,0,0,0,0,0c0,0,0,0,0,0c0,0,0,0,0,0.1s0,0,0,0.1c-0.9,0-1.7-0.2-2.5-0.3c-0.6-0.1-1.3-0.2-1.9-0.3c-0.1,0-0.2,0-0.3-0.2
			c0.1-0.2,0.1-0.4,0.2-0.6c0.1-0.2,0.1-0.5,0.1-0.7c0-0.2,0-0.4,0-0.5c0-0.2,0-0.5,0.1-0.7c0-0.3,0-0.5,0-0.8c0-0.6,0-1.1-0.1-1.7
			c-0.1-0.4,0.1-0.9,0.3-1.3c0-0.1,0.1-0.1,0.2-0.1c0.1,0,0.1,0,0.2,0.1c0,0,0,0,0,0c0,0,0.1,0,0.1,0c1.2,0.4,2.4,0.9,3.6,1.3
			c0,0,0,0,0.1,0c0.1,0.1,0.3,0.1,0.4,0.1c0,0,0,0,0,0c0,0,0,0,0,0c0,0,0.1,0,0.1,0c0,0,0,0,0,0c0.2,0.1,0.2,0.3,0,1.1
			C29,16.6,29.2,16.7,29.2,16.9z"/>
		<path class="st2" d="M38.6,19.4c-0.1,0.6,0,1.2-0.1,1.7c0,0.1,0,0.2-0.1,0.3c-0.1,0.2-0.1,0.4-0.2,0.6c-0.2,0.5-0.4,0.6-0.8,0.6
			c-0.8-0.1-1.6-0.3-2.4-0.4c-0.6-0.1-1.2-0.2-1.8-0.3c0,0-0.1,0-0.1-0.1v0c0.3-0.5,0.5-1.2,0.5-1.8c0.1-0.6,0.1-1.1,0-1.7
			c-0.1-0.4,0.1-0.7,0.1-1.1c0-0.1,0.1,0,0.2,0c0.9,0.3,1.7,0.7,2.6,1c0.5,0.2,1,0.4,1.5,0.6c0.1,0,0.2,0.1,0.2,0.2
			C38.6,18.9,38.6,19.1,38.6,19.4z"/>
		<path class="st3" d="M19.4,16C19.4,16,19.4,16,19.4,16C19.4,16,19.4,16,19.4,16L19.4,16z M19.3,18.3c0,0.1,0,0.2,0,0.2
			c0,0,0,0.1,0,0.1c0,0,0,0.1,0,0.1c0,0.1,0,0.1,0,0.2c0,0,0,0,0,0.1c0,0,0,0,0,0.1c0,0,0,0.1,0,0.1c0,0.2,0,0.4-0.2,0.5l0,0
			c0.5,0.3,1.1,0.3,1.6,0.2c0.6-0.1,1.2-0.1,1.9,0c0.4,0.1,0.9,0.2,1.3,0c0.1-0.2,0.1-0.4,0.2-0.6L19.3,18.3z M23.9,16.5
			c0-0.1,0.2,0,0.1-0.2c-0.1-0.1-0.2-0.1-0.4,0c-0.1,0-0.1,0.1-0.2,0.2l0.8,0.2C24,16.5,23.9,16.7,23.9,16.5z"/>
		<path class="st3" d="M24.2,17.5c0,0.2-0.1,0.5-0.1,0.7c0,0.2,0,0.4,0,0.5c0,0.3-0.1,0.5-0.1,0.7l-4.7-1.1c0-0.1,0-0.2,0-0.3
			c0,0,0-0.1,0-0.1c0-0.1,0-0.1,0-0.2c0-0.1,0-0.1,0-0.2c0,0,0-0.1,0-0.1c0-0.3,0-0.5,0-0.8c0-0.1,0-0.2,0-0.3c0-0.1,0-0.2,0-0.3
			c0,0,0,0,0,0c0.1,0.3,0.3,0.2,0.5,0.2c0.5-0.1,1-0.4,1.6-0.4c0.3,0,0.6,0,0.9,0.3c0,0,0.2,0,0.3-0.1c0.1,0,0.3,0,0.4,0
			c0.1,0,0.2,0,0.2,0.1c0,0.1,0,0.2,0,0.3c0,0.1,0.1,0.1,0.1,0l0.8,0.2l0.1,0C24.2,16.9,24.2,17.2,24.2,17.5z"/>
		<path class="st3" d="M33.4,19.9c-0.2-0.2-0.5-0.2-0.8-0.2c-0.6-0.1-1-0.4-1.4-1c-0.2-0.4-0.4-0.5-0.7-0.7
			c-0.3-0.2-0.7-0.1-0.9-0.5c0,0-0.1,0-0.1,0c-0.2,0.3-0.3-0.1-0.4-0.1c0,0.6-0.1,1.1-0.1,1.7c0,0.1,0,0.2,0,0.2c0,0.1,0,0.1,0,0.2
			c0,0,0,0.1,0,0.1c0,0,0,0.1,0,0.1c0,0,0,0.1,0,0.1c0,0,0,0.1,0,0.1c0,0,0,0.1,0,0.1c0,0,0,0.1,0,0.1c0,0,0,0.1,0,0.1c0,0,0,0,0,0
			c0,0,0,0.1,0,0.1c0,0,0,0.1,0,0.1c0,0,0,0.1,0,0.1c0,0,0,0,0,0c0,0,0,0,0,0.1c0,0,0,0.1,0,0.1c0,0,0,0,0,0c0,0,0,0,0,0
			c0,0,0,0,0,0.1c0,0,0,0,0,0.1l0,0c0.2,0.1,0.3,0.1,0.5,0.2c0.8,0.1,1.5,0.3,2.3,0.4c0.6,0.1,1.3,0.4,1.9,0.4
			c0.3-0.5,0.5-1.2,0.5-1.8C33.7,19.9,33.6,20,33.4,19.9z M33.5,20.6c0-0.2,0-0.3,0.1-0.4C33.6,20.4,33.6,20.5,33.5,20.6z"/>
	</g>
	<path class="st2" d="M14.6,11.5C14.6,11.5,14.6,11.5,14.6,11.5C14.6,11.5,14.6,11.5,14.6,11.5c-0.2,0-0.3,0-0.4,0.1
		c0,0.1,0,0.1,0,0.2c0,0.4,0,0.7,0,1.1c0,0,0,0.1,0,0.1c0,0.1,0,0.1,0,0.2c0,1,0,2,0,3c0,0,0,0,0,0c0,0.4,0,0.9,0,1.3
		c0,0,0,0.1,0,0.1c0.1,0.1,0.1,0.2,0.1,0.3c0,0.2,0,0.4-0.1,0.7c0,0.2,0,0.3,0,0.3c0,0,0,0,0.1,0c0,0,0.1,0,0.1-0.1
		c-0.2-0.3,0.1-0.6,0-0.9c0-1.7,0-3.4,0-5.1C14.6,12.6,14.5,12,14.6,11.5C14.6,11.5,14.6,11.5,14.6,11.5z M14.3,17v-3.5h0.1L14.3,17
		L14.3,17L14.3,17z"/>
</g>
</svg>
