<?xml version="1.0" encoding="utf-8"?>
<!-- Generator: Adobe Illustrator 16.0.0, SVG Export Plug-In . SVG Version: 6.00 Build 0)  -->
<!DOCTYPE svg PUBLIC "-//W3C//DTD SVG 1.1//EN" "http://www.w3.org/Graphics/SVG/1.1/DTD/svg11.dtd">
<svg version="1.1" id="katman_1" xmlns="http://www.w3.org/2000/svg" xmlns:xlink="http://www.w3.org/1999/xlink" x="0px" y="0px"
	 width="50px" height="50px" viewBox="0 0 50 50" enable-background="new 0 0 50 50" xml:space="preserve">
<g>
	<g>
		<path fill="#515C79" d="M29.053,27.346l-0.023-14.899c0-1.619-1.016-3.071-2.582-3.632l-0.145-0.031
			c-0.445-0.155-0.903-0.228-1.359-0.228c-0.872,0-1.453,0.28-1.453,0.28c-1.515,0.539-2.542,1.991-2.542,3.61v14.897
			c-2.21,1.369-3.58,3.827-3.58,6.464c0,4.213,3.413,7.635,7.626,7.635c4.212,0,7.636-3.422,7.636-7.635
			C32.631,31.172,31.262,28.714,29.053,27.346z M25.005,39.721c-3.247,0-5.893-2.656-5.893-5.902c0-2.271,1.338-4.367,3.392-5.322
			l0.218-0.104v-15.77c0-1.255,1.017-2.271,2.272-2.271c0.611,0,1.184,0.238,1.607,0.653c0.437,0.446,0.674,1.017,0.674,1.618
			v15.749l0.219,0.103c2.074,0.965,3.414,3.072,3.414,5.344C30.909,37.064,28.252,39.721,25.005,39.721z"/>
	</g>
</g>
<path fill="#F75970" d="M28.73,33.76c0,2.07-1.66,3.74-3.73,3.74c-2.06,0-3.73-1.67-3.73-3.74c0-1.729,1.16-3.18,2.75-3.609v-13.5
	h-0.01v-3.17c0-0.39,0.44-0.7,0.99-0.7c0.27,0,0.52,0.08,0.7,0.21c0.17,0.12,0.28,0.3,0.28,0.49V28H26v2.16
	C27.58,30.59,28.73,32.04,28.73,33.76z"/>
</svg>
