<?xml version="1.0" encoding="utf-8"?>
<!-- Generator: Adobe Illustrator 16.0.0, SVG Export Plug-In . SVG Version: 6.00 Build 0)  -->
<!DOCTYPE svg PUBLIC "-//W3C//DTD SVG 1.1//EN" "http://www.w3.org/Graphics/SVG/1.1/DTD/svg11.dtd">
<svg version="1.1" id="katman_1" xmlns="http://www.w3.org/2000/svg" xmlns:xlink="http://www.w3.org/1999/xlink" x="0px" y="0px"
	 width="50px" height="50px" viewBox="0 0 50 50" enable-background="new 0 0 50 50" xml:space="preserve">
<g>
	<g>
		<path fill="#515C79" d="M29.052,27.345L29.03,12.447c0-1.619-1.016-3.071-2.582-3.632l-0.146-0.031
			c-0.445-0.155-0.902-0.228-1.358-0.228c-0.872,0-1.453,0.28-1.453,0.28c-1.515,0.539-2.542,1.991-2.542,3.61v14.897
			c-2.21,1.369-3.58,3.827-3.58,6.464c0,4.212,3.413,7.635,7.626,7.635c4.212,0,7.636-3.423,7.636-7.635
			C32.631,31.172,31.262,28.714,29.052,27.345z M25.005,39.721c-3.247,0-5.893-2.656-5.893-5.902c0-2.271,1.338-4.368,3.392-5.323
			l0.218-0.104V12.623c0-1.255,1.017-2.271,2.272-2.271c0.612,0,1.183,0.238,1.607,0.653c0.437,0.446,0.675,1.017,0.675,1.618
			v15.749l0.218,0.103c2.075,0.965,3.414,3.072,3.414,5.344C30.909,37.064,28.252,39.721,25.005,39.721z"/>
	</g>
</g>
<path fill="#54C0D6" d="M25.984,29.65h-1.971v-3.173c0-0.384,0.439-0.693,0.984-0.693c0.273,0,0.519,0.077,0.699,0.203
	c0.177,0.125,0.286,0.3,0.286,0.49L25.984,29.65L25.984,29.65z"/>
<path fill="#54C0D6" d="M28.734,33.759c0,2.066-1.668,3.736-3.735,3.736c-2.063,0-3.733-1.67-3.733-3.736
	c0-1.726,1.168-3.176,2.757-3.604v-2.155h1.972v2.159C27.578,30.593,28.734,32.042,28.734,33.759z"/>
</svg>
