<?xml version="1.0" encoding="utf-8"?>
<!-- Generator: Adobe Illustrator 16.0.0, SVG Export Plug-In . SVG Version: 6.00 Build 0)  -->
<!DOCTYPE svg PUBLIC "-//W3C//DTD SVG 1.1//EN" "http://www.w3.org/Graphics/SVG/1.1/DTD/svg11.dtd">
<svg version="1.1" id="katman_1" xmlns="http://www.w3.org/2000/svg" xmlns:xlink="http://www.w3.org/1999/xlink" x="0px" y="0px"
	 width="50px" height="50px" viewBox="0 0 50 50" enable-background="new 0 0 50 50" xml:space="preserve">
<g>
	<g>
		<g>
			<path fill="#505B79" d="M43.507,13.538c0,0.148-0.035,0.299-0.112,0.421l-0.16,0.199c-0.386,0.446-0.744,0.855-0.809,0.931
				c-0.406,0.399-1.026,0.882-2.046,0.882c-1.329,0-2.036-0.831-2.546-1.44c-0.47-0.571-0.744-0.869-1.29-0.869
				c-0.561,0-0.833,0.297-1.294,0.857c-0.521,0.621-1.216,1.452-2.557,1.452s-2.039-0.831-2.548-1.44
				c-0.495-0.594-0.743-0.869-1.302-0.869c-0.545,0-0.795,0.274-1.28,0.857c-0.521,0.621-1.215,1.452-2.556,1.452
				c-1.345,0-2.038-0.831-2.546-1.44c-0.498-0.594-0.744-0.869-1.305-0.869c-0.548,0-0.794,0.274-1.279,0.857
				c-0.521,0.621-1.217,1.452-2.557,1.452c-1.342,0-2.037-0.831-2.547-1.44c-0.482-0.594-0.742-0.869-1.289-0.869
				c-0.559,0-0.809,0.274-1.293,0.857c-0.51,0.621-1.217,1.452-2.559,1.452c-1.328,0-2.035-0.831-2.545-1.44
				c-0.137-0.162-0.248-0.297-0.36-0.421c-0.136-0.137-0.235-0.348-0.235-0.572c0-0.446,0.373-0.82,0.82-0.82
				c0.224,0,0.434,0.088,0.582,0.248c0.162,0.15,0.298,0.311,0.424,0.472c0.521,0.609,0.77,0.882,1.314,0.882
				c0.561,0,0.809-0.272,1.293-0.844c0.508-0.623,1.217-1.454,2.559-1.454c1.338,0,2.035,0.831,2.543,1.44
				c0.486,0.585,0.745,0.857,1.293,0.857c0.547,0,0.807-0.272,1.291-0.844c0.51-0.623,1.203-1.454,2.558-1.454
				c1.341,0,2.034,0.831,2.544,1.44c0.485,0.585,0.746,0.857,1.294,0.857c0.545,0,0.805-0.272,1.29-0.844
				c0.51-0.623,1.205-1.454,2.558-1.454c1.342,0,2.038,0.831,2.546,1.44c0.472,0.572,0.746,0.857,1.292,0.857
				c0.557,0,0.807-0.272,1.292-0.857c0.521-0.609,1.214-1.44,2.559-1.44c1.341,0,2.035,0.831,2.544,1.44
				c0.485,0.585,0.747,0.857,1.292,0.857c0.299,0,0.521-0.073,0.756-0.261v-0.075l0.148-0.074c0.126-0.137,0.262-0.284,0.386-0.434
				l0.361-0.448c0.1-0.124,0.185-0.186,0.299-0.246c0.096-0.051,0.222-0.075,0.359-0.075C43.135,12.707,43.507,13.079,43.507,13.538
				z"/>
		</g>
	</g>
	<g>
		<g>
			<path fill="#505B79" d="M43.5,22.252c0,0.148-0.035,0.297-0.112,0.421l-0.16,0.2c-0.386,0.445-0.745,0.854-0.809,0.93
				c-0.406,0.399-1.028,0.883-2.046,0.883c-1.329,0-2.038-0.832-2.546-1.441c-0.472-0.571-0.745-0.868-1.29-0.868
				c-0.561,0-0.833,0.297-1.294,0.857c-0.521,0.62-1.217,1.452-2.558,1.452c-1.342,0-2.038-0.832-2.548-1.441
				c-0.494-0.596-0.742-0.868-1.301-0.868c-0.546,0-0.796,0.272-1.28,0.857c-0.521,0.62-1.215,1.452-2.556,1.452
				c-1.345,0-2.038-0.832-2.548-1.441c-0.496-0.596-0.745-0.868-1.303-0.868c-0.548,0-0.795,0.272-1.279,0.857
				c-0.521,0.62-1.217,1.452-2.558,1.452s-2.036-0.832-2.546-1.441c-0.485-0.596-0.742-0.868-1.29-0.868
				c-0.56,0-0.809,0.272-1.292,0.857c-0.51,0.62-1.217,1.452-2.559,1.452c-1.328,0-2.035-0.832-2.545-1.441
				c-0.137-0.161-0.248-0.297-0.361-0.42c-0.135-0.139-0.234-0.349-0.234-0.572c0-0.445,0.372-0.82,0.82-0.82
				c0.223,0,0.434,0.087,0.582,0.248c0.162,0.15,0.297,0.311,0.424,0.473c0.521,0.609,0.769,0.882,1.314,0.882
				c0.561,0,0.809-0.272,1.293-0.847c0.508-0.62,1.217-1.451,2.558-1.451c1.339,0,2.034,0.831,2.544,1.44
				c0.485,0.585,0.745,0.857,1.292,0.857c0.548,0,0.807-0.272,1.292-0.847c0.508-0.62,1.203-1.451,2.558-1.451
				c1.341,0,2.034,0.831,2.544,1.44c0.485,0.585,0.746,0.857,1.294,0.857c0.545,0,0.805-0.272,1.29-0.847
				c0.51-0.62,1.205-1.451,2.557-1.451c1.343,0,2.039,0.831,2.547,1.44c0.472,0.571,0.744,0.857,1.291,0.857
				c0.557,0,0.807-0.272,1.292-0.857c0.521-0.609,1.215-1.44,2.56-1.44c1.341,0,2.034,0.831,2.542,1.44
				c0.485,0.585,0.749,0.857,1.294,0.857c0.297,0,0.521-0.075,0.756-0.261v-0.076l0.148-0.073c0.126-0.138,0.262-0.286,0.386-0.437
				l0.361-0.445c0.1-0.124,0.184-0.186,0.299-0.248c0.096-0.051,0.222-0.075,0.357-0.075C43.128,21.419,43.5,21.791,43.5,22.252z"/>
		</g>
		<g>
			<path fill="#505B79" d="M43.514,31.139c0,0.173-0.049,0.337-0.148,0.472l-0.138,0.16c-0.311,0.372-0.62,0.722-0.745,0.871
				l-0.112,0.11c-0.571,0.546-1.217,0.82-1.987,0.82c-1.341,0-2.048-0.831-2.556-1.44c-0.474-0.572-0.735-0.855-1.294-0.855
				c-0.545,0-0.819,0.283-1.29,0.855c-0.51,0.609-1.205,1.44-2.546,1.44s-2.05-0.831-2.56-1.44
				c-0.472-0.572-0.731-0.855-1.291-0.855c-0.544,0-0.806,0.272-1.29,0.855c-0.51,0.609-1.215,1.44-2.547,1.44
				c-1.354,0-2.047-0.831-2.557-1.44c-0.483-0.583-0.745-0.855-1.292-0.855c-0.559,0-0.807,0.272-1.29,0.855
				c-0.51,0.609-1.205,1.44-2.547,1.44c-1.354,0-2.049-0.831-2.559-1.44c-0.483-0.583-0.744-0.855-1.29-0.855
				c-0.558,0-0.819,0.283-1.292,0.855c-0.508,0.609-1.203,1.44-2.544,1.44c-1.354,0-2.05-0.831-2.56-1.44
				c-0.135-0.175-0.246-0.299-0.346-0.41c-0.15-0.148-0.236-0.359-0.236-0.571c0-0.459,0.372-0.818,0.817-0.818
				c0.226,0,0.423,0.073,0.585,0.235c0.162,0.175,0.311,0.348,0.445,0.509c0.485,0.583,0.747,0.856,1.294,0.856
				c0.546,0,0.807-0.286,1.29-0.856c0.51-0.608,1.205-1.451,2.546-1.451c1.354,0,2.05,0.843,2.558,1.451
				c0.483,0.583,0.746,0.856,1.291,0.856c0.546,0,0.808-0.273,1.293-0.856c0.508-0.608,1.203-1.451,2.544-1.451
				c1.354,0,2.05,0.843,2.56,1.451c0.482,0.583,0.73,0.856,1.289,0.856c0.548,0,0.807-0.273,1.281-0.856
				c0.521-0.608,1.215-1.451,2.556-1.451c1.344,0,2.049,0.831,2.561,1.451c0.47,0.559,0.731,0.856,1.29,0.856
				c0.545,0,0.805-0.286,1.29-0.856c0.51-0.608,1.205-1.451,2.546-1.451c1.354,0,2.05,0.843,2.56,1.451
				c0.485,0.583,0.746,0.856,1.29,0.856c0.325,0,0.547-0.087,0.795-0.322l0.063-0.051l0.053-0.049
				c0.122-0.124,0.246-0.272,0.382-0.435l0.35-0.434c0.1-0.124,0.199-0.199,0.299-0.25c0.11-0.061,0.231-0.085,0.357-0.085
				C43.139,30.308,43.514,30.678,43.514,31.139z"/>
		</g>
	</g>
	<g>
		<g>
			<path fill="#505B79" d="M43.507,17.941c0,0.15-0.035,0.3-0.112,0.424l-0.16,0.199c-0.388,0.445-0.746,0.855-0.809,0.931
				c-0.408,0.397-1.028,0.882-2.046,0.882c-1.329,0-2.038-0.833-2.548-1.441c-0.47-0.57-0.743-0.869-1.29-0.869
				c-0.561,0-0.831,0.299-1.292,0.857c-0.521,0.62-1.217,1.453-2.559,1.453c-1.341,0-2.037-0.833-2.547-1.441
				c-0.494-0.595-0.744-0.869-1.301-0.869c-0.547,0-0.796,0.274-1.28,0.857c-0.523,0.62-1.217,1.453-2.558,1.453
				c-1.343,0-2.037-0.833-2.547-1.441c-0.496-0.595-0.744-0.869-1.303-0.869c-0.547,0-0.793,0.274-1.278,0.857
				c-0.522,0.62-1.217,1.453-2.558,1.453c-1.34,0-2.036-0.833-2.546-1.441c-0.485-0.595-0.745-0.869-1.292-0.869
				c-0.559,0-0.807,0.274-1.289,0.857c-0.51,0.62-1.219,1.453-2.561,1.453c-1.328,0-2.034-0.833-2.543-1.441
				c-0.138-0.16-0.25-0.296-0.361-0.422c-0.136-0.137-0.235-0.348-0.235-0.572c0-0.445,0.372-0.817,0.819-0.817
				c0.225,0,0.436,0.087,0.584,0.248c0.161,0.149,0.297,0.311,0.421,0.47c0.522,0.609,0.771,0.883,1.315,0.883
				c0.559,0,0.809-0.273,1.293-0.845c0.51-0.62,1.217-1.454,2.557-1.454c1.341,0,2.037,0.834,2.547,1.441
				c0.484,0.584,0.744,0.857,1.291,0.857s0.805-0.273,1.29-0.845c0.51-0.62,1.206-1.454,2.56-1.454c1.34,0,2.034,0.834,2.544,1.441
				c0.485,0.584,0.745,0.857,1.292,0.857c0.545,0,0.807-0.273,1.29-0.845c0.51-0.62,1.205-1.454,2.559-1.454
				c1.341,0,2.037,0.834,2.547,1.441c0.47,0.573,0.744,0.857,1.29,0.857c0.558,0,0.809-0.273,1.293-0.857
				c0.521-0.607,1.215-1.441,2.558-1.441s2.034,0.834,2.544,1.441c0.485,0.584,0.747,0.857,1.294,0.857
				c0.297,0,0.521-0.074,0.756-0.26V18.39l0.148-0.075c0.126-0.136,0.262-0.284,0.386-0.435l0.361-0.446
				c0.1-0.123,0.184-0.188,0.297-0.248c0.098-0.051,0.224-0.074,0.359-0.074C43.135,17.111,43.507,17.483,43.507,17.941z"/>
		</g>
	</g>
	<g>
		<g>
			<path fill="#505B79" d="M43.5,26.656c0,0.15-0.035,0.299-0.113,0.423l-0.16,0.197c-0.387,0.447-0.746,0.857-0.807,0.933
				c-0.408,0.396-1.029,0.88-2.049,0.88c-1.326,0-2.035-0.831-2.545-1.44c-0.471-0.569-0.746-0.868-1.291-0.868
				c-0.561,0-0.83,0.299-1.291,0.857c-0.523,0.62-1.219,1.451-2.561,1.451c-1.34,0-2.035-0.831-2.545-1.44
				c-0.494-0.594-0.744-0.868-1.301-0.868c-0.549,0-0.799,0.274-1.281,0.857c-0.523,0.62-1.217,1.451-2.557,1.451
				c-1.343,0-2.037-0.831-2.547-1.44c-0.496-0.594-0.744-0.868-1.303-0.868c-0.547,0-0.795,0.274-1.279,0.857
				c-0.521,0.62-1.216,1.451-2.557,1.451s-2.037-0.831-2.546-1.44c-0.485-0.594-0.745-0.868-1.292-0.868
				c-0.559,0-0.807,0.274-1.29,0.857c-0.509,0.62-1.218,1.451-2.56,1.451c-1.329,0-2.036-0.831-2.544-1.44
				c-0.138-0.159-0.25-0.297-0.36-0.421c-0.136-0.138-0.235-0.348-0.235-0.571c0-0.446,0.372-0.82,0.819-0.82
				c0.223,0,0.435,0.088,0.583,0.248c0.162,0.15,0.298,0.313,0.421,0.472c0.523,0.609,0.771,0.883,1.316,0.883
				c0.559,0,0.809-0.273,1.293-0.845c0.509-0.62,1.216-1.453,2.557-1.453s2.037,0.833,2.546,1.44
				c0.485,0.584,0.745,0.857,1.292,0.857c0.545,0,0.805-0.273,1.29-0.845c0.51-0.62,1.205-1.453,2.56-1.453
				c1.338,0,2.034,0.833,2.544,1.44c0.485,0.584,0.745,0.857,1.292,0.857c0.545,0,0.805-0.273,1.29-0.845
				c0.51-0.62,1.205-1.453,2.559-1.453c1.342,0,2.037,0.833,2.547,1.44c0.471,0.571,0.744,0.857,1.289,0.857
				c0.559,0,0.809-0.273,1.295-0.857c0.52-0.607,1.215-1.44,2.557-1.44s2.035,0.833,2.545,1.44c0.484,0.584,0.746,0.857,1.291,0.857
				c0.299,0,0.523-0.074,0.758-0.26v-0.075l0.146-0.075c0.129-0.138,0.264-0.284,0.387-0.435l0.361-0.447
				c0.1-0.122,0.186-0.187,0.299-0.247c0.098-0.051,0.223-0.075,0.357-0.075C43.127,25.824,43.5,26.197,43.5,26.656z"/>
		</g>
		<g>
			<path fill="#505B79" d="M43.514,35.543c0,0.173-0.049,0.336-0.148,0.472l-0.139,0.162c-0.311,0.372-0.621,0.72-0.746,0.868
				l-0.109,0.113c-0.572,0.545-1.217,0.819-1.988,0.819c-1.342,0-2.047-0.833-2.557-1.442c-0.473-0.569-0.734-0.855-1.293-0.855
				c-0.545,0-0.82,0.286-1.289,0.855c-0.51,0.609-1.205,1.442-2.547,1.442s-2.049-0.833-2.559-1.442
				c-0.473-0.569-0.734-0.855-1.293-0.855c-0.543,0-0.807,0.272-1.289,0.855c-0.51,0.609-1.217,1.442-2.547,1.442
				c-1.353,0-2.049-0.833-2.559-1.442c-0.482-0.583-0.744-0.855-1.289-0.855c-0.559,0-0.809,0.272-1.291,0.855
				c-0.509,0.609-1.205,1.442-2.547,1.442c-1.353,0-2.049-0.833-2.558-1.442c-0.483-0.583-0.745-0.855-1.29-0.855
				c-0.559,0-0.82,0.286-1.292,0.855c-0.509,0.609-1.203,1.442-2.546,1.442c-1.352,0-2.048-0.833-2.558-1.442
				c-0.136-0.173-0.248-0.297-0.348-0.409c-0.15-0.147-0.235-0.359-0.235-0.57c0-0.461,0.373-0.819,0.818-0.819
				c0.224,0,0.423,0.073,0.585,0.236c0.161,0.173,0.31,0.346,0.445,0.508c0.485,0.585,0.747,0.857,1.292,0.857
				c0.547,0,0.807-0.288,1.292-0.857c0.507-0.607,1.203-1.451,2.546-1.451c1.352,0,2.048,0.844,2.557,1.451
				c0.484,0.585,0.745,0.857,1.291,0.857c0.547,0,0.809-0.272,1.291-0.857c0.51-0.607,1.204-1.451,2.547-1.451
				c1.352,0,2.047,0.844,2.557,1.451c0.485,0.585,0.734,0.857,1.291,0.857c0.547,0,0.807-0.272,1.28-0.857
				c0.523-0.607,1.215-1.451,2.557-1.451c1.344,0,2.049,0.831,2.563,1.451c0.469,0.559,0.73,0.857,1.289,0.857
				c0.545,0,0.805-0.288,1.291-0.857c0.51-0.607,1.205-1.451,2.545-1.451c1.354,0,2.051,0.844,2.559,1.451
				c0.484,0.585,0.748,0.857,1.291,0.857c0.324,0,0.547-0.088,0.795-0.323l0.063-0.049l0.051-0.051
				c0.125-0.122,0.248-0.272,0.383-0.435l0.35-0.433c0.1-0.126,0.199-0.199,0.299-0.25c0.111-0.062,0.232-0.086,0.357-0.086
				C43.139,34.712,43.514,35.084,43.514,35.543z"/>
		</g>
	</g>
</g>
</svg>
