<?xml version="1.0" encoding="utf-8"?>
<!-- Generator: Adobe Illustrator 22.0.1, SVG Export Plug-In . SVG Version: 6.00 Build 0)  -->
<svg version="1.1" id="katman_1" xmlns="http://www.w3.org/2000/svg" xmlns:xlink="http://www.w3.org/1999/xlink" x="0px" y="0px" width="50px" height="50px"
	 viewBox="0 0 50 50" style="enable-background:new 0 0 50 50;" xml:space="preserve">
<style type="text/css">
	.st0{fill:#FFFFFF;}
	.st1{fill:#505B78;}
	.st2{opacity:0.17;fill:#505B78;enable-background:new    ;}
	.st3{fill:#66CD54;}
</style>
<path class="st0" d="M16.9,17.1l-3.2-0.5l-3.1,0.9L9.4,19l-0.9,1.2l-1.6,0.6l-1.4,1.3l-0.9,1.6l-0.4,1.7l0.9,2.3l1.3,1.2l2.4,0.9
	h4.5h18l2.2-1.4l1.1-1.8v-2l-0.8-2.2l-1.3-1.5l-0.7-1.3L31,17.5l-1-2L28.6,14c0,0-2.9-1.2-3-1L23,13.1l-2.6,0.6l-1.6,1.6L16.9,17.1z
	"/>
<path class="st0" d="M45.9,21.3v2l-1.1,1.8l-2.2,1.4H35l0.1-0.2v-2.1l-0.8-2.3l-1.4-1.5l-0.7-1.3L31.4,17l-1.1-2l-1.4-1.6
	c0,0-0.1,0-0.2-0.1l1.4-1.2l1.6-1.6l2.6-0.6c0,0,2.6,0,2.7-0.2c0.1-0.2,3,1,3,1l1.4,1.5l1,2l0.8,2.1l0.7,1.3l1.3,1.5L45.9,21.3z"/>
<g>
	<g>
		<g>
			<g>
				<path class="st1" d="M44.3,16.9C44.2,16.9,44.2,16.8,44.3,16.9c-0.4-2.3-1.5-4.3-3.2-5.7c-1.6-1.4-3.7-2.3-6-2.3
					c-0.9,0-1.9,0.1-2.7,0.4c-1.9,0.6-3.5,1.8-4.8,3.4c-0.4-0.2-0.9-0.3-1.4-0.4v0.5c0,0,1,0.2,2.1,0.8c0.1,0.1,0.3,0.1,0.4,0.2
					c1-1.5,2.4-2.5,4-3c0.7-0.2,1.5-0.3,2.3-0.3c3.8,0,7,2.8,7.5,6.5c0.1,0.5,0.5,1,0.8,1.2c1.4,0.9,2.2,2.6,1.9,4.2
					c-0.3,1.8-1.5,3-3.2,3.4c-0.3,0-0.6,0.1-1,0.1h-5.6c0,0.3-0.1,0.6-0.2,0.9c-0.1,0.2-0.2,0.5-0.3,0.7H41c0.5,0,0.9,0,1.3-0.1
					c2.4-0.5,4.1-2.3,4.5-4.6C47.3,20.5,46.3,18.1,44.3,16.9z"/>
			</g>
		</g>
		<g>
			<g>
				<path class="st1" d="M35.8,25.8c-0.4,2.4-2.2,4.2-4.5,4.6c-0.4,0.1-0.8,0.1-1.3,0.1h-5.9c-0.2-0.5-0.5-1-0.7-1.5v-0.1h5.4l0,0
					H30c0.4,0,0.7,0,1-0.1c1.7-0.4,2.9-1.6,3.2-3.4c0.3-1.6-0.5-3.3-1.9-4.2c-0.4-0.2-0.7-0.7-0.8-1.2c-0.5-3.7-3.7-6.5-7.5-6.5
					c-0.8,0-1.5,0.1-2.3,0.4c-1.8,0.6-3.2,1.6-4.3,3.3l-0.1,0.2c0,0,0,0,0,0.1c-0.1,0.1-0.2,0.2-0.4,0.2h-0.1l0,0l-0.7-0.3
					c-0.8-0.3-1.6-0.5-2.4-0.5c-2.1,0-4,1.2-5,3.2c-0.2,0.4-0.6,0.7-1,0.8c-2,0.6-3.3,2.5-3,4.5C5,27.6,6.7,29,8.9,29h8.3
					c-0.3,0.5-0.6,1.1-0.8,1.6H8.9c-3.1,0-5.4-2-5.8-5c-0.4-2.8,1.4-5.5,4.2-6.3c1.4-2.5,3.8-4,6.5-4c0.9,0,1.9,0.2,2.8,0.5
					c1.2-1.7,2.8-2.8,4.8-3.4C22.1,12.2,23,12,24,12c2.3,0,4.4,0.9,6,2.3s2.8,3.4,3.1,5.7c0,0,0.1,0,0.1,0.1
					C35.2,21.3,36.2,23.6,35.8,25.8z"/>
			</g>
		</g>
		<path class="st2" d="M29.3,12.3c0,0,4.8,2.1,5.1,7c0,0,3.5,2.4,2.4,7h-2.2l0.1-3.6l-2.2-2.2l-0.3-2.3l-3.1-3.6L28,13.8L29.3,12.3z
			"/>
	</g>
	<path class="st2" d="M14.2,28.4c-2.1-0.3-8.1-1.4-8.6-5c0,0-1.2,5,3.7,5.1L14.2,28.4C14.2,28.5,14.2,28.4,14.2,28.4z"/>
</g>
<path class="st3" d="M21,27.1c0.2,1.7,0,3.6,1,5.2c0.3,0.5,0.7,1,0.8,1.6c0.3,1-0.2,2.2-0.9,3c-0.4,0.5-1,0.9-1.6,1
	c-0.9,0.2-1.9-0.1-2.6-0.7c-0.4-0.4-0.6-0.9-0.7-1.4c-0.1-0.6,0-1.2,0.2-1.8c0.8-2.5,2.4-4.7,3.4-7.2c0-0.1,0.1-0.1,0.1-0.2
	c0.2-0.1,0.2,0.1,0.3,0.2C21,26.9,21,27,21,27.1z"/>
<path class="st3" d="M28.7,31.9c0.2,1.7,0,3.6,1,5.2c0.3,0.5,0.7,1,0.8,1.6c0.3,1-0.2,2.2-0.9,3c-0.4,0.5-1,0.9-1.6,1
	c-0.9,0.2-1.9-0.1-2.6-0.7c-0.4-0.4-0.6-0.9-0.7-1.4c-0.1-0.6,0-1.2,0.2-1.8c0.8-2.5,2.4-4.7,3.4-7.2c0-0.1,0.1-0.1,0.1-0.2
	c0.2-0.1,0.2,0.1,0.3,0.2C28.7,31.7,28.7,31.8,28.7,31.9z"/>
</svg>
