<?xml version="1.0" encoding="utf-8"?>
<!-- Generator: Adobe Illustrator 16.0.0, SVG Export Plug-In . SVG Version: 6.00 Build 0)  -->
<!DOCTYPE svg PUBLIC "-//W3C//DTD SVG 1.1//EN" "http://www.w3.org/Graphics/SVG/1.1/DTD/svg11.dtd">
<svg version="1.1" id="katman_1" xmlns="http://www.w3.org/2000/svg" xmlns:xlink="http://www.w3.org/1999/xlink" x="0px" y="0px"
	 width="50px" height="50px" viewBox="0 0 50 50" enable-background="new 0 0 50 50" xml:space="preserve">
<path fill="#FFFFFF" d="M46.006,19.323v2.01l-1.102,1.809l-2.289,1.4h-7.881l0.021-0.039v-2.021l-0.801-2.17l-1.369-1.488
	l-0.73-1.271l-0.779-2.059l-1.061-1.932l-1.391-1.5c0,0-0.229-0.09-0.569-0.219l1.74-1.53l1.63-1.6l2.609-0.61
	c0,0,2.66-0.05,2.779-0.2c0.12-0.15,3.061,1,3.061,1l1.391,1.49l1.061,1.931l0.779,2.059l0.74,1.281l1.359,1.479L46.006,19.323z"/>
<path fill="#FFFFFF" d="M16.856,15.24l-3.285-0.529l-3.162,0.894l-1.314,1.545l-0.945,1.134l-1.64,0.619L5.073,20.2L4.167,21.75
	l-0.385,1.622l0.949,2.237l1.338,1.141l2.495,0.854h4.638h18.523l2.303-1.385l1.109-1.791v-1.992l-0.807-2.154l-1.371-1.473
	l-0.74-1.263l-0.781-2.036l-1.066-1.91l-1.398-1.483c0,0-2.955-1.133-3.078-0.983c-0.123,0.15-2.793,0.191-2.793,0.191l-2.627,0.606
	l-1.641,1.589L16.856,15.24z"/>
<g>
	<g>
		<g>
			<path fill="#505B78" d="M44.262,14.932c-0.02-0.023-0.07-0.071-0.084-0.071c-0.297-2.263-1.436-4.242-3.07-5.665
				c-1.623-1.411-3.74-2.264-6.045-2.264c-0.924,0-1.85,0.143-2.732,0.414c-1.936,0.604-3.531,1.755-4.77,3.448
				c-0.449-0.178-0.896-0.308-1.352-0.391l0.047,0.521c0,0,0.949,0.18,2.111,0.783c0.129,0.061,0.26,0.13,0.391,0.201
				c1.043-1.505,2.369-2.5,4.043-3.022c0.734-0.226,1.492-0.344,2.262-0.344c3.783,0,7.021,2.811,7.521,6.53
				c0.064,0.521,0.461,0.996,0.809,1.221c1.443,0.913,2.229,2.598,1.941,4.172c-0.332,1.756-1.543,3-3.248,3.354
				c-0.266,0.049-0.563,0.071-0.961,0.071h-5.563c-0.049,0.282-0.121,0.58-0.227,0.877c-0.096,0.234-0.201,0.485-0.346,0.732h6.129
				c0.51,0,0.912-0.035,1.277-0.105c2.35-0.475,4.078-2.249,4.52-4.646C47.307,18.545,46.252,16.198,44.262,14.932z"/>
		</g>
	</g>
	<g>
		<g>
			<path fill="#505B78" d="M33.178,18.072c-0.029-0.021-0.07-0.07-0.08-0.07c-0.301-2.26-1.438-4.238-3.07-5.66
				c-1.629-1.42-3.75-2.27-6.046-2.27c-0.93,0-1.85,0.14-2.739,0.42c-1.921,0.6-3.521,1.76-4.761,3.44
				c-0.91-0.352-1.84-0.53-2.77-0.53c-2.71,0-5.11,1.5-6.49,4.03c-2.8,0.79-4.56,3.431-4.16,6.271c0.4,2.959,2.74,4.949,5.811,4.949
				h6.399c-0.069-0.313-0.1-0.629-0.1-0.949c0-0.221,0.02-0.439,0.05-0.66H8.869c-2.261-0.01-3.92-1.4-4.221-3.561
				c-0.27-2.029,0.99-3.921,3-4.49c0.44-0.12,0.851-0.45,1.04-0.82c1.051-1.979,2.92-3.158,5.011-3.158c0.8,0,1.59,0.17,2.38,0.5
				l0.66,0.26c0.01,0,0.029,0.01,0.039,0.02c0.051,0.011,0.091,0.021,0.141,0.021c0.149,0,0.29-0.08,0.37-0.19
				c0.02-0.02,0.02-0.04,0.04-0.06l0.13-0.2c1.09-1.69,2.479-2.771,4.26-3.33c0.74-0.229,1.5-0.35,2.26-0.35
				c3.791,0,7.021,2.81,7.521,6.528c0.068,0.53,0.459,1,0.811,1.221c1.439,0.92,2.225,2.602,1.934,4.17
				c-0.32,1.762-1.529,3.012-3.24,3.359c-0.26,0.051-0.563,0.069-0.959,0.069h-2.211c0.027,0.221,0.051,0.438,0.051,0.67
				c0,0.319-0.027,0.642-0.1,0.95h2.26c0.521,0,0.91-0.041,1.275-0.109c2.354-0.479,4.07-2.261,4.514-4.649
				C36.227,21.683,35.168,19.342,33.178,18.072z"/>
		</g>
	</g>
	<path opacity="0.17" fill="#505B78" enable-background="new    " d="M29.299,10.405c0,0,4.766,2.099,5.137,6.963
		c0,0,3.504,2.396,2.369,7.013h-2.197l0.146-3.604l-2.246-2.196l-0.346-2.304l-3.064-3.647l-1.063-0.791L29.299,10.405z"/>
	<path fill="#4D8FC6" d="M27.205,27.814c0,0.449-0.355,0.812-0.811,0.812h-2.917l2.068,2.067c0.311,0.31,0.311,0.828,0,1.141
		c-0.319,0.318-0.827,0.318-1.139,0l-2.079-2.079v2.938c0,0.438-0.359,0.811-0.809,0.811c-0.439,0-0.8-0.369-0.8-0.811v-2.938
		l-2.079,2.079c-0.309,0.318-0.818,0.318-1.138,0c-0.311-0.313-0.311-0.831,0-1.141l2.068-2.067h-2.928c-0.44,0-0.8-0.36-0.8-0.812
		c0-0.446,0.359-0.813,0.8-0.813h2.928l-2.068-2.067c-0.311-0.318-0.311-0.828,0-1.138c0.158-0.16,0.369-0.241,0.568-0.241
		c0.21,0,0.41,0.081,0.569,0.241l2.079,2.078v-2.938c0-0.451,0.36-0.813,0.8-0.813c0.449,0,0.809,0.358,0.809,0.813v2.928
		l2.068-2.067c0.322-0.32,0.83-0.32,1.149,0c0.146,0.147,0.229,0.356,0.229,0.567c0,0.199-0.08,0.41-0.229,0.568L23.476,27h2.917
		C26.85,27.005,27.205,27.368,27.205,27.814z"/>
	<path fill="#4D8FC6" d="M18.455,36.628c0,0.449-0.354,0.812-0.81,0.812h-2.916l2.069,2.067c0.309,0.31,0.309,0.828,0,1.14
		c-0.32,0.319-0.828,0.319-1.14,0l-2.079-2.078v2.938c0,0.438-0.359,0.812-0.809,0.812c-0.439,0-0.8-0.367-0.8-0.812v-2.938
		l-2.079,2.078c-0.309,0.319-0.818,0.319-1.138,0c-0.311-0.312-0.311-0.83,0-1.14l2.068-2.067H7.893c-0.44,0-0.8-0.357-0.8-0.812
		c0-0.446,0.359-0.812,0.8-0.812h2.928l-2.068-2.067c-0.311-0.317-0.311-0.828,0-1.138c0.158-0.16,0.369-0.241,0.568-0.241
		c0.21,0,0.41,0.081,0.569,0.241l2.079,2.078v-2.938c0-0.45,0.36-0.813,0.8-0.813c0.449,0,0.809,0.356,0.809,0.813v2.931
		l2.068-2.066c0.322-0.321,0.83-0.321,1.15,0c0.148,0.146,0.229,0.355,0.229,0.566c0,0.196-0.08,0.407-0.229,0.565l-2.069,2.065
		h2.917C18.101,35.816,18.455,36.182,18.455,36.628z"/>
	<path fill="#4D8FC6" d="M36.359,37.378c0,0.449-0.354,0.812-0.813,0.812h-2.916l2.068,2.067c0.313,0.31,0.313,0.828,0,1.14
		c-0.318,0.319-0.826,0.319-1.143,0l-2.078-2.078v2.938c0,0.438-0.355,0.812-0.811,0.812c-0.438,0-0.799-0.367-0.799-0.812v-2.938
		l-2.08,2.078c-0.309,0.319-0.816,0.319-1.137,0c-0.313-0.312-0.313-0.83,0-1.14l2.065-2.067h-2.929
		c-0.439,0-0.799-0.357-0.799-0.812c0-0.446,0.359-0.812,0.799-0.812h2.929l-2.065-2.067c-0.313-0.317-0.313-0.828,0-1.138
		c0.156-0.16,0.367-0.241,0.565-0.241c0.212,0,0.409,0.081,0.569,0.241l2.078,2.078v-2.938c0-0.45,0.357-0.813,0.801-0.813
		c0.449,0,0.811,0.356,0.811,0.813v2.931l2.066-2.066c0.322-0.321,0.83-0.321,1.146,0c0.146,0.146,0.229,0.355,0.229,0.566
		c0,0.196-0.08,0.407-0.229,0.565l-2.066,2.065h2.918C36.006,36.566,36.359,36.932,36.359,37.378z"/>
</g>
<path opacity="0.17" fill="#505B78" enable-background="new    " d="M13.983,26.508c-2.146-0.283-8.116-1.393-8.577-4.977
	c0,0-1.188,5.031,3.688,5.063h4.95C14.023,26.564,14.002,26.537,13.983,26.508z"/>
</svg>
